<?xml version="1.0" standalone="no"?>
<!DOCTYPE svg PUBLIC "-//W3C//DTD SVG 20010904//EN"
 "http://www.w3.org/TR/2001/REC-SVG-20010904/DTD/svg10.dtd">
<svg version="1.0" xmlns="http://www.w3.org/2000/svg"
 width="818.000000pt" height="818.000000pt" viewBox="0 0 818.000000 818.000000"
 preserveAspectRatio="xMidYMid meet">
<metadata>
Created by potrace 1.14, written by Peter Selinger 2001-2017
</metadata>
<g transform="translate(0.000000,818.000000) scale(0.100000,-0.100000)"
fill="#000000" stroke="none">
<path d="M1078 8175 c-1 -2 -19 -4 -38 -6 -19 -2 -39 -5 -45 -8 -5 -2 -21 -6
-36 -8 -70 -7 -221 -73 -317 -137 -37 -24 -96 -73 -132 -108 -64 -61 -160
-185 -160 -206 0 -5 -6 -15 -13 -21 -12 -9 -16 -76 -6 -85 2 -2 36 -7 74 -10
86 -9 121 -13 160 -20 17 -3 53 -8 80 -12 28 -3 59 -8 70 -10 27 -6 82 -15
114 -19 14 -2 26 -4 26 -5 0 -1 14 -4 30 -6 17 -3 90 -16 164 -30 111 -21 136
-23 146 -12 6 7 38 78 70 158 59 149 87 214 133 310 14 30 27 57 27 60 1 3 13
29 28 59 14 29 24 57 22 61 -4 7 -92 34 -150 45 -34 7 -241 15 -247 10z"/>
<path d="M1645 7903 c-26 -60 -54 -120 -62 -135 -7 -15 -14 -30 -14 -33 0 -2
-13 -33 -28 -67 -26 -58 -42 -95 -46 -108 -1 -3 -5 -14 -10 -25 -31 -77 -45
-118 -40 -124 11 -11 350 -94 385 -94 19 0 89 14 155 32 134 37 142 39 169 40
15 1 17 6 11 29 -3 15 -12 41 -20 57 -7 17 -45 107 -84 200 -81 192 -77 185
-111 206 -48 30 -238 129 -247 129 -6 0 -32 -48 -58 -107z"/>
<path d="M2341 7628 c40 -101 60 -158 59 -164 -3 -14 26 -24 55 -19 17 3 43 7
58 9 16 3 60 8 98 12 38 4 72 11 75 15 3 5 -1 9 -10 9 -8 0 -16 3 -18 8 -1 4
-23 18 -48 30 -178 93 -256 136 -264 143 -23 21 -24 6 -5 -43z"/>
<path d="M232 7339 c-2 -30 13 -58 110 -200 148 -215 270 -379 392 -524 l25
-30 123 129 c68 70 128 138 134 150 7 11 17 46 24 76 6 30 26 106 43 167 17
62 28 115 25 118 -6 6 -29 11 -88 20 -20 3 -47 8 -60 10 -30 6 -51 10 -150 25
-41 6 -86 14 -100 16 -14 3 -41 7 -60 10 -19 2 -121 19 -226 37 l-190 32 -2
-36z"/>
<path d="M2945 7262 c-1 -2 -29 -5 -61 -7 -55 -4 -125 -12 -184 -20 -50 -7
-146 -18 -173 -19 -32 -1 -32 -8 -4 -101 9 -27 28 -93 43 -145 l26 -94 125
-121 124 -120 23 25 c86 92 380 505 373 523 -3 7 -38 29 -78 49 -67 34 -81 37
-142 35 -38 -1 -70 -3 -72 -5z"/>
<path d="M1321 7073 c-18 -60 -34 -117 -36 -128 -2 -11 -9 -42 -16 -70 -10
-45 -15 -79 -18 -112 -1 -7 -49 -61 -107 -120 -58 -60 -133 -139 -167 -176
l-60 -69 114 -111 c63 -62 131 -126 152 -143 35 -27 41 -40 67 -140 54 -201
95 -319 110 -318 8 0 40 6 70 12 30 7 64 14 75 16 11 3 75 21 143 42 121 36
123 37 170 21 95 -30 423 -110 429 -104 13 13 83 273 99 367 2 14 6 35 9 47 3
12 47 64 98 116 112 113 227 239 227 247 0 9 -206 211 -256 252 -39 31 -44 40
-73 148 -18 63 -33 122 -36 130 -12 49 -58 181 -64 185 -5 2 -25 -1 -47 -7
-21 -6 -46 -11 -54 -12 -22 -3 -62 -14 -195 -53 l-121 -35 -149 42 c-83 23
-159 43 -170 45 -11 2 -48 10 -81 19 -34 9 -66 16 -72 16 -5 0 -24 -48 -41
-107z"/>
<path d="M3399 6978 c-38 -57 -152 -218 -171 -243 -5 -5 -40 -50 -78 -100 -39
-49 -86 -108 -105 -130 -19 -22 -34 -47 -34 -55 -1 -8 16 -34 37 -57 20 -23
46 -54 57 -69 11 -15 25 -32 30 -38 6 -6 24 -29 40 -51 17 -22 32 -42 36 -45
8 -7 188 -257 229 -318 19 -28 39 -52 44 -52 5 0 77 26 160 57 83 31 171 64
196 73 25 9 52 20 60 23 32 14 217 80 247 89 l33 9 -6 262 c-3 144 -7 284 -8
310 l-1 48 -75 41 c-41 22 -113 60 -160 85 -47 25 -107 57 -135 73 -27 15 -84
45 -125 68 -41 22 -103 48 -137 56 -34 9 -69 19 -77 22 -9 4 -28 -15 -57 -58z"/>
<path d="M225 6395 c0 -261 3 -475 6 -475 3 0 18 18 35 40 129 179 279 375
304 400 33 33 32 36 -38 121 -38 46 -107 136 -155 199 -48 63 -90 120 -95 125
-5 6 -17 23 -26 38 -10 15 -21 27 -25 27 -3 0 -6 -214 -6 -475z"/>
<path d="M4409 6543 c0 -5 0 -35 1 -68 2 -33 3 -107 5 -165 1 -80 5 -104 15
-102 7 2 77 42 156 90 l142 86 -30 19 c-17 10 -78 43 -137 74 -58 31 -110 60
-115 64 -12 11 -36 12 -37 2z"/>
<path d="M2817 6238 c-8 -13 -65 -74 -127 -137 -113 -117 -113 -118 -135 -221
-1 -8 -8 -35 -15 -60 -7 -25 -14 -52 -15 -60 -2 -8 -10 -36 -18 -62 -8 -27
-13 -48 -10 -48 3 0 0 -7 -7 -15 -7 -8 -11 -15 -9 -16 2 0 20 -2 39 -4 19 -2
60 -6 90 -10 30 -3 69 -8 85 -9 40 -5 134 -16 165 -21 14 -2 54 -6 90 -10 36
-4 76 -8 90 -10 52 -8 146 -18 182 -19 21 0 38 -4 38 -7 0 -3 10 -5 23 -4 35
3 45 -4 51 -38 3 -18 8 -41 10 -52 3 -11 14 -60 24 -110 11 -49 23 -106 26
-126 3 -20 8 -42 10 -50 3 -8 7 -25 10 -39 2 -14 18 -92 36 -175 17 -82 34
-161 36 -175 3 -13 7 -26 8 -28 3 -2 152 47 649 217 115 39 212 69 216 67 4
-3 41 -54 81 -113 40 -59 106 -155 145 -213 39 -58 116 -170 170 -250 54 -80
101 -149 105 -153 7 -8 24 9 188 182 l90 95 37 145 c53 209 53 188 -3 196 -38
5 -176 32 -317 61 -38 7 -154 33 -180 39 -11 3 -31 7 -45 10 -92 18 -250 58
-246 62 3 3 1 16 -4 29 -6 14 -12 35 -14 47 -2 12 -18 81 -36 152 -18 72 -34
139 -36 150 -2 11 -22 92 -44 180 -22 88 -40 168 -40 178 0 13 -5 17 -17 13
-10 -3 -108 -33 -218 -67 -110 -33 -252 -76 -315 -96 -63 -19 -122 -37 -130
-38 -8 -2 -44 -13 -80 -25 -36 -12 -72 -23 -80 -25 -9 -2 -36 29 -70 79 -30
44 -68 99 -85 122 -16 23 -37 51 -45 64 -8 12 -39 54 -67 91 -29 38 -53 73
-53 78 0 5 -3 11 -7 13 -5 2 -30 32 -58 67 -114 144 -136 171 -144 171 -5 0
-16 -10 -24 -22z"/>
<path d="M4935 6232 c-16 -9 -32 -19 -35 -22 -3 -3 -110 -68 -237 -145 -142
-85 -233 -145 -233 -155 0 -8 9 -53 21 -100 11 -47 22 -93 25 -102 2 -10 6
-26 8 -35 3 -10 12 -49 21 -88 9 -38 21 -88 26 -110 21 -85 27 -112 39 -165 7
-30 15 -58 19 -62 3 -4 24 -10 46 -13 22 -4 51 -8 65 -11 14 -2 41 -7 60 -10
19 -3 46 -7 60 -10 14 -2 68 -11 120 -20 52 -8 106 -18 120 -20 14 -3 39 -7
55 -9 17 -2 44 -6 60 -9 82 -15 135 -17 135 -7 0 6 43 111 95 234 52 122 95
228 95 235 0 6 5 12 10 12 6 0 10 6 10 14 0 8 20 59 45 114 25 55 45 103 45
108 -1 5 -38 40 -84 78 -81 67 -195 135 -393 235 -26 14 -70 37 -96 53 -56 33
-62 33 -102 10z"/>
<path d="M737 6186 c-27 -35 -83 -104 -103 -129 -8 -10 -31 -42 -51 -70 -20
-29 -41 -57 -47 -62 -6 -6 -31 -39 -55 -75 -25 -36 -48 -66 -53 -68 -4 -2 -8
-8 -8 -12 0 -5 -30 -52 -66 -106 l-66 -97 104 7 c57 3 114 8 128 11 14 2 61 6
105 10 44 3 103 8 130 10 75 8 153 15 220 20 66 5 127 14 132 19 2 1 -4 19
-12 39 -8 20 -15 39 -15 42 1 7 -29 111 -47 165 -8 25 -16 53 -18 63 -2 10
-60 73 -130 140 l-125 122 -23 -29z"/>
<path d="M5792 5673 c-28 -60 -59 -128 -70 -153 -11 -25 -29 -67 -42 -95 -39
-84 -139 -339 -136 -343 2 -2 17 -5 32 -7 16 -2 29 -4 29 -5 0 -1 9 -3 20 -5
11 -1 54 -10 95 -19 41 -10 85 -19 97 -22 12 -2 33 -8 45 -13 13 -5 25 -9 28
-9 3 0 21 -3 41 -7 25 -5 57 0 105 15 38 12 109 33 157 45 49 13 91 26 94 29
5 5 -56 163 -103 271 -10 22 -18 42 -19 45 -1 5 -48 105 -110 232 -25 54 -32
60 -112 103 -47 25 -89 45 -93 45 -4 0 -30 -48 -58 -107z"/>
<path d="M1715 5525 c-22 -8 -82 -25 -133 -39 -101 -27 -97 -26 -114 -26 -43
-1 -39 -16 47 -221 48 -112 98 -229 112 -259 14 -30 43 -95 65 -145 23 -49 45
-96 51 -102 5 -7 7 -13 3 -13 -3 0 3 -17 14 -37 11 -21 20 -41 20 -46 0 -5
-37 -43 -82 -85 -89 -84 -89 -84 -338 -322 -95 -91 -176 -166 -181 -168 -21
-8 -2 -32 94 -115 56 -48 118 -101 137 -118 102 -90 147 -129 170 -149 14 -12
52 -45 84 -73 32 -29 72 -63 87 -76 16 -13 29 -29 29 -35 0 -14 -63 -141 -80
-161 -7 -8 -10 -15 -7 -15 3 0 -9 -30 -27 -67 -29 -59 -65 -137 -71 -153 -5
-14 -28 -67 -51 -118 -14 -31 -29 -66 -34 -77 -4 -11 -23 -59 -43 -106 -23
-57 -32 -91 -26 -100 5 -8 9 -11 9 -7 0 3 16 2 36 -4 20 -5 44 -11 53 -13 76
-18 180 -47 198 -54 16 -8 44 -4 105 14 93 26 250 65 266 65 6 0 22 4 36 10
l25 9 -46 113 c-54 136 -93 225 -146 338 -22 47 -41 87 -42 90 -3 10 -41 86
-55 110 -8 14 -15 27 -15 30 -1 3 -11 24 -23 48 l-23 43 309 309 310 308 -46
41 c-25 23 -47 41 -49 41 -2 0 -34 26 -71 58 -37 31 -87 73 -111 92 -24 19
-48 40 -55 45 -6 6 -49 42 -96 80 -47 39 -98 82 -115 96 -16 15 -43 37 -59 51
l-28 24 52 109 c114 238 145 307 226 495 78 184 81 195 63 202 -23 9 -61 17
-102 24 -16 2 -33 6 -38 9 -5 4 -17 8 -27 10 -9 1 -37 8 -62 15 -25 7 -52 14
-60 15 -8 2 -31 9 -50 14 -43 13 -46 13 -95 -4z"/>
<path d="M6390 5493 c0 -4 32 -87 71 -185 65 -159 73 -176 93 -172 23 6 39 8
106 18 25 4 70 11 100 16 30 5 80 12 110 15 53 6 68 11 59 19 -2 2 -42 24 -89
48 -47 25 -112 60 -145 78 -33 18 -98 53 -145 78 -47 25 -102 56 -122 69 -21
13 -38 20 -38 16z"/>
<path d="M1157 5404 c-1 -2 -25 -6 -52 -9 -28 -3 -68 -9 -90 -12 -22 -4 -49
-7 -60 -9 -26 -2 -110 -13 -155 -20 -52 -8 -78 -11 -145 -19 -33 -3 -71 -8
-85 -10 -14 -3 -46 -7 -72 -10 -72 -8 -128 -14 -178 -21 -25 -3 -51 -6 -57 -6
-10 -1 -13 -77 -13 -342 0 -314 1 -342 18 -352 21 -13 94 -54 182 -102 36 -19
70 -38 75 -42 6 -5 37 -22 70 -39 33 -18 74 -40 90 -50 17 -10 53 -30 80 -45
28 -16 56 -33 63 -38 6 -6 12 -7 12 -3 0 5 8 1 18 -7 32 -29 166 -89 141 -63
-3 2 107 117 243 254 l249 249 -72 158 c-39 88 -91 206 -115 264 -24 58 -50
119 -58 135 -8 17 -24 55 -35 86 -19 47 -39 67 -54 53z"/>
<path d="M2402 5373 c-6 -10 -27 -61 -47 -113 -20 -52 -43 -108 -50 -125 -8
-16 -25 -57 -39 -90 -13 -33 -51 -117 -84 -186 -33 -69 -62 -135 -66 -145 -5
-17 20 -41 136 -138 79 -65 163 -135 188 -156 109 -93 192 -160 199 -160 14 0
61 25 61 33 0 4 7 7 15 7 8 0 15 4 15 10 0 5 3 9 8 8 4 -1 18 5 32 13 73 46
242 149 245 149 2 0 47 27 100 60 53 33 99 60 103 60 4 1 18 10 31 21 23 19
24 23 12 55 -7 19 -14 44 -17 57 -9 48 -12 64 -24 107 -7 25 -13 50 -15 55 -4
20 -17 71 -32 130 -8 33 -19 78 -23 100 -17 75 -41 160 -48 167 -4 4 -36 10
-72 13 -99 8 -172 16 -200 21 -14 2 -45 7 -70 10 -66 8 -123 15 -140 18 -8 2
-37 6 -65 11 -63 10 -83 13 -117 20 -19 5 -29 1 -36 -12z"/>
<path d="M7206 4983 c-1 -1 -33 -5 -71 -8 -71 -7 -89 -9 -185 -22 -30 -4 -65
-7 -77 -7 -13 -1 -23 -4 -23 -7 0 -3 -8 -5 -17 -5 -10 1 -62 -5 -115 -13 -78
-12 -98 -18 -98 -31 0 -14 29 -113 47 -160 4 -8 5 -19 4 -24 -1 -4 2 -13 7
-20 5 -6 15 -36 22 -66 17 -72 24 -84 73 -128 23 -20 83 -78 133 -128 82 -83
93 -90 105 -75 127 152 379 491 379 510 0 5 4 11 8 13 4 2 22 24 39 50 36 53
38 50 -53 97 -51 27 -69 31 -118 29 -32 -2 -58 -4 -60 -5z"/>
<path d="M6318 4856 c-27 -7 -48 -12 -48 -10 0 2 -16 -4 -35 -12 -19 -8 -37
-14 -40 -14 -3 0 -7 -1 -10 -1 -3 -1 -8 -2 -12 -3 -20 -4 -121 -39 -148 -51
-50 -21 -59 -22 -90 -13 -16 5 -37 11 -45 13 -33 9 -257 57 -280 61 -14 2 -53
10 -88 17 -60 13 -64 13 -74 -6 -5 -11 -12 -34 -15 -51 -3 -17 -9 -38 -13 -46
-4 -8 -11 -31 -14 -51 -3 -20 -8 -42 -10 -50 -6 -17 -16 -65 -21 -99 -2 -14
-4 -26 -5 -27 -4 -5 -7 -22 -9 -43 0 -11 -35 -55 -77 -98 -42 -42 -106 -110
-143 -151 -36 -41 -70 -79 -76 -85 -41 -46 -42 -43 27 -109 97 -91 160 -149
195 -177 26 -21 37 -45 68 -150 20 -69 38 -132 40 -140 4 -17 88 -263 92 -269
2 -3 38 4 81 14 42 11 79 19 82 20 14 3 127 37 140 42 8 3 20 7 25 9 27 7 116
41 121 46 4 5 33 0 97 -17 38 -11 81 -21 125 -29 13 -3 31 -7 40 -10 9 -3 33
-7 52 -10 19 -3 51 -10 70 -16 53 -15 67 -12 79 18 15 38 68 232 76 278 4 22
8 46 10 54 2 8 4 23 4 33 1 10 52 71 115 135 179 185 226 236 226 250 0 14
-136 152 -230 232 -35 30 -72 62 -82 71 -10 8 -19 24 -21 35 -8 45 -125 425
-130 423 -1 0 -23 -6 -49 -13z"/>
<path d="M4155 4719 c-27 -11 -57 -22 -65 -24 -8 -2 -87 -31 -175 -65 -88 -34
-164 -63 -170 -64 -5 -2 -17 -6 -25 -9 -23 -10 -153 -58 -172 -64 -10 -3 -18
-8 -19 -12 -5 -35 -2 -737 3 -751 4 -11 15 -20 25 -20 10 0 37 -7 60 -15 23
-8 56 -17 74 -20 18 -3 35 -8 39 -10 4 -2 22 -7 40 -10 19 -3 39 -10 46 -15 6
-6 14 -7 17 -4 3 3 12 2 19 -2 7 -5 18 -9 23 -11 6 -1 21 -4 34 -7 13 -3 63
-16 110 -30 47 -13 102 -27 121 -31 19 -4 40 -10 45 -13 6 -4 21 -8 34 -10 14
-2 32 -7 40 -12 18 -9 28 0 66 60 43 67 198 281 288 394 44 56 83 106 88 111
4 6 -7 26 -24 47 -44 50 -57 66 -118 144 -30 38 -56 71 -59 74 -7 6 -165 224
-234 323 -26 37 -50 67 -54 67 -4 -1 -29 -10 -57 -21z"/>
<path d="M7564 4623 c-26 -40 -193 -270 -219 -300 -5 -7 -20 -25 -32 -40 -12
-15 -52 -65 -88 -111 -48 -58 -65 -86 -58 -95 6 -6 46 -57 90 -112 88 -111
259 -341 313 -422 19 -29 40 -53 46 -53 28 0 178 67 188 85 6 11 13 22 16 25
18 18 83 171 100 237 62 239 40 468 -67 679 l-36 71 -101 28 c-55 15 -108 30
-118 32 -10 3 -23 -5 -34 -24z"/>
<path d="M3145 4281 c-71 -44 -136 -84 -142 -90 -7 -7 -13 -9 -13 -6 0 6 -51
-25 -60 -36 -3 -3 -20 -14 -37 -23 -18 -9 -33 -20 -33 -24 0 -4 24 -20 53 -35
28 -15 63 -34 77 -42 103 -59 280 -155 287 -155 6 0 10 96 10 245 0 135 -3
245 -6 245 -3 -1 -64 -36 -136 -79z"/>
<path d="M250 4035 l0 -286 31 18 c18 10 39 23 48 28 9 6 98 59 197 119 255
153 239 134 149 181 -114 61 -160 86 -289 158 -65 37 -122 67 -127 67 -5 0 -9
-126 -9 -285z"/>
<path d="M2363 3697 l-252 -254 59 -121 c33 -68 60 -124 60 -127 0 -2 11 -28
24 -57 46 -103 63 -144 81 -193 10 -27 22 -54 25 -60 4 -5 13 -28 20 -50 7
-22 15 -44 19 -50 3 -5 6 -14 6 -20 1 -5 5 -9 10 -9 15 3 126 16 160 20 17 1
48 5 70 8 85 10 172 18 215 21 25 1 83 6 130 10 47 4 97 7 112 6 25 -1 27 2
38 69 6 38 12 72 12 75 0 2 5 26 12 52 7 27 12 56 10 66 -1 9 2 17 7 17 6 0 8
4 5 8 -2 4 6 62 19 127 14 66 27 136 30 155 3 20 8 47 11 60 2 14 10 51 16 84
12 66 19 55 -72 107 -247 141 -555 309 -566 309 -5 0 -123 -114 -261 -253z"/>
<path d="M4895 3912 c-10 -7 -145 -206 -155 -228 -7 -14 -103 -158 -111 -164
-3 -3 -16 -24 -29 -47 -13 -24 -26 -43 -30 -43 -3 0 -16 -20 -30 -45 -14 -25
-28 -45 -32 -45 -5 0 -8 -4 -8 -9 0 -14 -67 -110 -73 -105 -3 3 -11 7 -19 8
-7 1 -33 8 -58 15 -25 7 -52 15 -60 17 -32 7 -206 55 -220 61 -8 3 -22 7 -30
8 -16 3 -97 25 -280 75 -63 18 -122 34 -130 35 -8 2 -16 4 -17 5 -2 2 -6 3
-10 4 -5 2 -27 8 -51 15 -23 6 -47 9 -52 6 -5 -3 -12 -27 -16 -53 -9 -67 -12
-81 -17 -90 -3 -4 -8 -29 -11 -55 -6 -43 -15 -93 -31 -167 -2 -13 -7 -42 -11
-64 -3 -22 -7 -44 -10 -47 -2 -4 -6 -24 -9 -45 -2 -22 -9 -61 -15 -89 -5 -27
-12 -63 -14 -79 -20 -120 -27 -136 -54 -138 -15 0 -31 -2 -37 -3 -5 0 -32 -5
-60 -9 -27 -5 -59 -10 -70 -12 -11 -2 -29 -5 -40 -7 -11 -3 -42 -8 -70 -11
-27 -4 -57 -9 -65 -11 -8 -2 -37 -7 -65 -10 -27 -4 -59 -8 -70 -10 -44 -8
-311 -47 -328 -48 -10 -1 -16 -6 -13 -13 8 -20 64 -208 82 -273 14 -50 26 -72
53 -95 20 -17 75 -71 123 -119 l87 -88 18 22 c10 12 25 29 34 38 8 9 57 72
109 141 52 69 98 130 102 135 13 15 106 140 181 243 37 50 74 92 82 92 7 0 96
-22 197 -50 175 -48 205 -56 308 -85 25 -7 54 -15 65 -18 11 -3 56 -15 100
-27 44 -12 85 -23 90 -24 56 -14 72 -18 85 -23 53 -21 57 -17 71 59 7 40 13
75 14 78 11 46 16 70 20 95 3 17 7 41 10 55 3 14 10 48 15 75 14 76 18 98 24
125 16 70 46 230 52 265 7 51 13 56 66 60 72 5 201 16 244 20 23 2 81 7 130
10 160 12 179 14 179 15 0 0 32 3 70 5 150 10 170 13 169 27 0 7 -10 57 -23
111 -13 54 -24 104 -25 110 -2 7 -6 26 -10 42 -4 17 -13 53 -19 80 -6 28 -19
57 -28 65 -158 144 -206 189 -227 213 -27 29 -31 31 -47 19z"/>
<path d="M827 3820 c-75 -44 -141 -80 -146 -80 -5 0 -11 -3 -13 -8 -3 -8 -333
-202 -343 -202 -6 0 -22 -13 -53 -40 -15 -13 -17 -47 -17 -315 l0 -299 30 -2
c17 -1 50 -5 75 -8 25 -4 56 -9 70 -11 43 -6 173 -24 220 -30 25 -3 56 -7 70
-9 14 -3 48 -7 75 -10 28 -4 61 -8 75 -11 14 -2 45 -7 70 -10 25 -3 54 -7 65
-9 29 -5 147 -20 169 -20 19 -1 52 68 169 345 11 24 27 62 37 84 9 22 30 69
45 105 15 36 36 84 46 107 25 55 24 67 -5 86 -13 9 -43 33 -68 54 -77 66 -301
252 -352 293 -10 8 -23 20 -30 25 -57 49 -39 52 -189 -35z"/>
<path d="M6943 3849 c-26 -29 -90 -94 -140 -145 -55 -56 -95 -105 -99 -121 -3
-16 -17 -71 -31 -123 -13 -52 -26 -103 -28 -113 -2 -9 -7 -22 -10 -27 -21 -34
-13 -49 28 -56 23 -4 51 -8 62 -9 11 -1 54 -7 95 -14 41 -6 102 -14 135 -17
33 -3 80 -7 105 -9 246 -24 273 -23 347 17 l62 34 -73 107 c-40 59 -80 115
-89 125 -10 10 -17 22 -17 25 0 4 -6 15 -14 24 -8 10 -63 81 -122 158 -146
191 -148 194 -156 194 -4 1 -28 -22 -55 -50z"/>
<path d="M5845 3133 c-55 -19 -109 -35 -120 -37 -85 -17 -155 -40 -155 -52 0
-7 9 -33 19 -56 39 -87 61 -138 61 -143 0 -7 93 -203 157 -331 l56 -112 66 35
c108 58 111 61 151 146 20 45 48 105 61 132 12 28 22 53 21 58 -1 4 2 7 8 7 6
0 10 7 10 15 0 8 4 23 10 33 5 9 23 51 40 92 44 105 51 123 61 143 7 12 5 19
-3 22 -22 7 -102 27 -128 32 -14 2 -43 9 -65 14 -22 5 -51 12 -65 15 -14 3
-38 8 -55 12 -22 5 -57 -2 -130 -25z"/>
<path d="M6536 3032 c-2 -4 -22 -52 -44 -107 -35 -88 -87 -206 -99 -227 -8
-14 38 9 312 157 28 15 88 47 135 72 91 48 120 69 83 60 -13 -3 -23 -2 -23 2
0 4 -10 7 -22 6 -12 -1 -40 2 -63 6 -22 4 -62 10 -90 13 -27 3 -61 8 -75 10
-67 12 -110 15 -114 8z"/>
<path d="M5256 3003 c-2 -3 -40 -8 -116 -18 -25 -3 -56 -7 -70 -9 -14 -3 -52
-7 -85 -11 -33 -3 -87 -10 -120 -15 -33 -5 -91 -12 -130 -16 -97 -8 -127 -12
-131 -17 -5 -4 -22 -96 -29 -152 -3 -22 -7 -47 -10 -55 -2 -8 -6 -31 -9 -50
-7 -47 -45 -280 -50 -305 -2 -11 -7 -40 -10 -65 -7 -50 -12 -44 89 -100 33
-18 94 -52 136 -76 42 -24 81 -44 87 -44 7 0 12 -3 12 -7 0 -5 10 -13 23 -19
12 -5 57 -29 99 -52 l78 -43 87 47 c281 150 248 130 406 252 112 88 118 97 88
148 -10 19 -34 71 -111 244 -37 84 -66 148 -120 265 -15 33 -30 70 -34 83 -6
18 -14 21 -42 19 -20 -1 -37 -3 -38 -4z"/>
<path d="M223 2637 c1 -15 7 -27 12 -27 6 0 19 -15 29 -32 11 -18 71 -109 135
-201 64 -93 121 -176 126 -185 6 -9 12 -19 15 -22 3 -3 39 -50 80 -105 41 -55
80 -106 87 -112 6 -7 21 -25 33 -40 21 -27 22 -27 36 -9 8 11 67 75 131 142
113 119 118 126 131 186 20 96 20 95 47 191 15 49 23 93 18 97 -4 5 -27 11
-50 14 -22 3 -52 7 -65 10 -32 7 -86 16 -128 21 -33 4 -113 16 -135 20 -5 1
-44 6 -85 10 -41 3 -88 8 -105 11 -31 4 -166 14 -242 18 -29 1 -48 8 -57 21
-13 19 -14 18 -13 -8z"/>
<path d="M2209 2479 c-37 -8 -76 -16 -119 -25 -14 -3 -59 -14 -100 -26 -41
-11 -79 -21 -85 -22 -5 -2 -41 -12 -78 -24 -50 -16 -74 -19 -87 -12 -24 13
-359 100 -384 100 -11 0 -16 -3 -13 -6 3 -4 2 -14 -3 -24 -8 -16 -57 -187 -66
-235 -2 -11 -10 -50 -16 -86 l-13 -66 -143 -149 c-79 -82 -152 -160 -163 -175
l-19 -26 88 -89 c49 -49 118 -115 154 -147 56 -48 68 -64 74 -100 9 -49 7 -41
22 -92 6 -22 12 -44 13 -50 1 -5 9 -26 17 -45 8 -19 14 -37 13 -40 -3 -18 43
-142 54 -146 8 -3 76 10 152 30 168 43 155 40 171 49 6 5 12 6 12 2 0 -3 17 2
37 10 39 16 29 18 168 -25 50 -15 278 -72 301 -74 11 -2 26 -6 33 -10 7 -5 17
5 26 27 15 36 80 278 89 332 3 17 8 41 11 55 3 14 69 90 150 173 80 82 153
159 161 173 16 24 15 25 -82 122 -55 53 -123 118 -152 143 -49 43 -55 53 -72
120 -24 97 -96 334 -107 352 -6 10 -18 11 -44 6z"/>
<path d="M3430 2332 c0 -4 -7 -17 -15 -27 -8 -11 -49 -69 -92 -130 -77 -111
-93 -133 -148 -201 -16 -20 -34 -44 -39 -53 -5 -9 -17 -25 -27 -36 -44 -47
-99 -121 -99 -133 0 -7 6 -19 13 -26 62 -63 284 -355 409 -538 l46 -68 59 31
c63 34 182 98 253 137 25 13 97 52 160 85 63 33 117 63 120 66 3 3 41 25 85
47 l80 41 -3 144 c-2 79 -5 212 -5 296 l-2 152 -45 20 c-37 16 -123 42 -260
76 -8 2 -116 31 -240 64 -232 63 -250 67 -250 53z"/>
<path d="M229 2178 c-2 -4 -5 -968 -3 -968 1 0 19 26 41 58 98 138 306 408
327 424 5 3 -34 59 -86 125 -52 65 -136 173 -186 241 -51 68 -93 122 -93 120z"/>
<path d="M4468 1823 c2 -87 5 -159 7 -162 2 -2 63 29 135 68 72 39 136 71 142
71 5 0 8 5 6 12 -4 12 -14 18 -134 84 -33 18 -80 44 -105 58 -24 14 -47 26
-50 26 -3 0 -4 -71 -1 -157z"/>
<path d="M2714 1433 c-71 -75 -132 -145 -135 -157 -6 -19 -23 -93 -34 -141 -2
-11 -16 -62 -31 -113 -15 -51 -25 -95 -22 -97 3 -3 27 -7 54 -10 27 -3 57 -8
67 -11 10 -3 31 -7 47 -9 17 -2 65 -9 108 -15 42 -5 97 -13 122 -16 80 -11
114 -8 132 9 8 6 40 25 73 41 33 17 72 38 88 49 15 10 27 16 27 12 0 -3 11 2
25 11 14 9 25 20 25 25 0 7 -44 72 -125 184 -14 20 -128 172 -142 190 -47 61
-130 163 -139 172 -8 9 -42 -21 -140 -124z"/>
<path d="M660 1394 c-52 -69 -100 -131 -105 -137 -24 -28 -180 -254 -248 -360
l-18 -27 113 5 c128 6 222 13 393 30 17 2 57 6 90 9 33 3 95 11 139 17 l78 12
-6 39 c-4 21 -10 47 -15 56 -9 17 -40 116 -46 149 -2 10 -4 19 -5 21 -2 1 -3
5 -5 10 -1 4 -5 20 -10 36 -4 15 -28 47 -53 70 -26 22 -81 76 -123 119 -43 42
-79 77 -81 77 -1 -1 -46 -57 -98 -126z"/>
<path d="M1749 840 c-8 -4 -81 -25 -164 -46 -82 -20 -151 -38 -153 -39 -3 -2
7 -27 34 -92 8 -17 14 -34 14 -38 0 -4 7 -22 15 -41 8 -19 22 -50 30 -69 9
-19 16 -37 16 -40 0 -2 23 -55 53 -117 29 -62 61 -132 71 -156 10 -23 21 -42
24 -42 3 0 71 35 151 78 138 75 146 81 170 128 45 90 150 348 150 370 0 7 -24
17 -57 24 -32 7 -80 18 -108 25 -27 8 -91 25 -141 38 -50 13 -98 21 -105 17z"/>
<path d="M1127 704 c-2 -2 -29 -6 -62 -10 -32 -3 -68 -8 -79 -10 -12 -2 -46
-7 -76 -10 -30 -3 -66 -7 -80 -10 -14 -2 -47 -6 -75 -9 -27 -3 -72 -7 -100
-11 -27 -3 -70 -7 -95 -9 -25 -3 -67 -7 -95 -10 -27 -2 -77 -7 -110 -10 -33
-4 -62 -8 -64 -11 -10 -10 84 -182 132 -240 73 -89 194 -192 287 -242 95 -52
260 -110 279 -98 6 4 11 3 11 -1 0 -5 15 -10 33 -13 54 -6 230 -4 276 3 43 7
161 37 161 42 0 1 -24 53 -54 116 -30 63 -75 164 -100 224 -26 61 -50 119 -55
130 -5 11 -14 36 -21 55 -7 19 -19 51 -28 70 -8 19 -15 40 -15 47 0 11 -60 16
-70 7z"/>
<path d="M2412 691 c-6 -4 -18 -25 -26 -46 -8 -22 -24 -63 -35 -91 l-20 -52
140 76 c76 41 137 78 134 81 -6 5 -10 6 -80 15 -22 3 -54 10 -71 15 -17 5 -36
6 -42 2z"/>
</g>
</svg>
