<svg width="188" height="60" viewBox="0 0 188 60" fill="none" xmlns="http://www.w3.org/2000/svg">
<path d="M0 4.18604C0 1.87416 1.97275 0 4.40625 0H183.594C186.027 0 188 1.87416 188 4.18605V55.814C188 58.1258 186.027 60 183.594 60H4.40625C1.97275 60 0 58.1258 0 55.814V4.18604Z" fill="white"/>
<path fill-rule="evenodd" clip-rule="evenodd" d="M183.594 1.39535H4.40625C2.78391 1.39535 1.46875 2.64479 1.46875 4.18604V55.8139C1.46875 57.3552 2.78391 58.6046 4.40625 58.6046H183.594C185.216 58.6046 186.531 57.3552 186.531 55.8139V4.18605C186.531 2.64479 185.216 1.39535 183.594 1.39535ZM4.40625 0C1.97275 0 0 1.87416 0 4.18604V55.8139C0 58.1258 1.97275 60 4.40625 60H183.594C186.027 60 188 58.1258 188 55.8139V4.18605C188 1.87416 186.027 0 183.594 0H4.40625Z" fill="#0086FF"/>
<path d="M62 20.8919V16.0541H63.54C64.3089 16.0541 64.9253 16.277 65.3894 16.723C65.8583 17.1689 66.0927 17.7523 66.0927 18.473C66.0927 19.1982 65.8583 19.7838 65.3894 20.2297C64.9253 20.6712 64.3089 20.8919 63.54 20.8919H62ZM62.6469 16.6486V20.2973H63.54C64.126 20.2973 64.5878 20.1374 64.9253 19.8176C65.2629 19.4932 65.4316 19.045 65.4316 18.473C65.4316 17.9054 65.2629 17.4595 64.9253 17.1351C64.5878 16.8108 64.126 16.6486 63.54 16.6486H62.6469Z" fill="#0086FF"/>
<path d="M66.4496 19.2365C66.4496 18.7275 66.616 18.3063 66.9489 17.973C67.2864 17.6396 67.7107 17.473 68.2217 17.473C68.7327 17.473 69.1546 17.6396 69.4874 17.973C69.825 18.3063 69.9937 18.7275 69.9937 19.2365C69.9937 19.75 69.825 20.1712 69.4874 20.5C69.1546 20.8333 68.7327 21 68.2217 21C67.7107 21 67.2864 20.8333 66.9489 20.5C66.616 20.1667 66.4496 19.7455 66.4496 19.2365ZM67.0965 19.2365C67.0965 19.5923 67.2044 19.8806 67.42 20.1014C67.6357 20.3221 67.9029 20.4324 68.2217 20.4324C68.5404 20.4324 68.8077 20.3221 69.0233 20.1014C69.239 19.8806 69.3468 19.5923 69.3468 19.2365C69.3468 18.8851 69.239 18.5991 69.0233 18.3784C68.803 18.1532 68.5358 18.0405 68.2217 18.0405C67.9076 18.0405 67.6403 18.1532 67.42 18.3784C67.2044 18.5991 67.0965 18.8851 67.0965 19.2365Z" fill="#0086FF"/>
<path d="M75.393 17.5811L74.2819 20.8919H73.6209L72.763 18.3514L71.9121 20.8919H71.2581L70.1471 17.5811H70.8221L71.5886 20.0811H71.5957L72.4466 17.5811H73.1146L73.9655 20.0811H73.9725L74.732 17.5811H75.393Z" fill="#0086FF"/>
<path d="M75.8142 17.5811H76.4331V18.0405H76.4612C76.5596 17.8784 76.7097 17.7432 76.9112 17.6351C77.1175 17.527 77.3308 17.473 77.5512 17.473C77.9731 17.473 78.2966 17.5901 78.5216 17.8243C78.7513 18.0541 78.8662 18.3829 78.8662 18.8108V20.8919H78.2192V18.8514C78.2051 18.3108 77.9215 18.0405 77.3683 18.0405C77.1105 18.0405 76.8948 18.1419 76.7214 18.3446C76.5479 18.5428 76.4612 18.7815 76.4612 19.0608V20.8919H75.8142V17.5811Z" fill="#0086FF"/>
<path d="M80.2725 16.0541V20.8919H79.6256V16.0541H80.2725Z" fill="#0086FF"/>
<path d="M80.8296 19.2365C80.8296 18.7275 80.996 18.3063 81.3289 17.973C81.6664 17.6396 82.0907 17.473 82.6017 17.473C83.1127 17.473 83.5346 17.6396 83.8674 17.973C84.205 18.3063 84.3737 18.7275 84.3737 19.2365C84.3737 19.75 84.205 20.1712 83.8674 20.5C83.5346 20.8333 83.1127 21 82.6017 21C82.0907 21 81.6664 20.8333 81.3289 20.5C80.996 20.1667 80.8296 19.7455 80.8296 19.2365ZM81.4765 19.2365C81.4765 19.5923 81.5844 19.8806 81.8 20.1014C82.0157 20.3221 82.2829 20.4324 82.6017 20.4324C82.9204 20.4324 83.1877 20.3221 83.4033 20.1014C83.619 19.8806 83.7268 19.5923 83.7268 19.2365C83.7268 18.8851 83.619 18.5991 83.4033 18.3784C83.183 18.1532 82.9158 18.0405 82.6017 18.0405C82.2876 18.0405 82.0203 18.1532 81.8 18.3784C81.5844 18.5991 81.4765 18.8851 81.4765 19.2365Z" fill="#0086FF"/>
<path d="M85.4326 19.8784C85.4326 20.0405 85.5029 20.1757 85.6435 20.2838C85.7888 20.3919 85.9576 20.4459 86.1498 20.4459C86.4217 20.4459 86.6632 20.3491 86.8741 20.1554C87.0898 19.9617 87.1976 19.7342 87.1976 19.473C86.996 19.3198 86.7147 19.2432 86.3538 19.2432C86.0912 19.2432 85.8709 19.3041 85.6927 19.4257C85.5193 19.5473 85.4326 19.6982 85.4326 19.8784ZM86.2694 17.473C86.7475 17.473 87.1249 17.5968 87.4015 17.8446C87.6781 18.0878 87.8164 18.4234 87.8164 18.8514V20.8919H87.1976V20.4324H87.1695C86.9023 20.8108 86.546 21 86.1006 21C85.7209 21 85.4021 20.8919 85.1442 20.6757C84.8911 20.4595 84.7645 20.1892 84.7645 19.8649C84.7645 19.5225 84.8981 19.25 85.1653 19.0473C85.4372 18.8446 85.7982 18.7432 86.2483 18.7432C86.6327 18.7432 86.9491 18.8108 87.1976 18.9459V18.8041C87.1976 18.5878 87.1085 18.4054 86.9304 18.2568C86.7522 18.1036 86.5436 18.027 86.3045 18.027C85.9435 18.027 85.6576 18.1734 85.4466 18.4662L84.877 18.1216C85.1911 17.6892 85.6552 17.473 86.2694 17.473Z" fill="#0086FF"/>
<path d="M90.0588 20.4324C90.3776 20.4324 90.6378 20.3221 90.8394 20.1014C91.0503 19.8806 91.1558 19.5923 91.1558 19.2365C91.1558 18.8896 91.0503 18.6036 90.8394 18.3784C90.6331 18.1532 90.3729 18.0405 90.0588 18.0405C89.7494 18.0405 89.4892 18.1532 89.2783 18.3784C89.0673 18.6036 88.9618 18.8896 88.9618 19.2365C88.9618 19.5878 89.0673 19.8739 89.2783 20.0946C89.4892 20.3198 89.7494 20.4324 90.0588 20.4324ZM89.9533 21C89.5033 21 89.1165 20.8288 88.793 20.4865C88.4743 20.1396 88.3149 19.723 88.3149 19.2365C88.3149 18.75 88.4743 18.3333 88.793 17.9865C89.1165 17.6441 89.5033 17.473 89.9533 17.473C90.2065 17.473 90.4362 17.5248 90.6425 17.6284C90.8534 17.732 91.0152 17.8694 91.1277 18.0405H91.1558L91.1277 17.5811V16.0541H91.7746V20.8919H91.1558V20.4324H91.1277C91.0152 20.6036 90.8534 20.741 90.6425 20.8446C90.4362 20.9482 90.2065 21 89.9533 21Z" fill="#0086FF"/>
<path d="M95.5605 16C95.7949 16 95.9871 16.0383 96.1371 16.1149L95.9613 16.6622C95.8488 16.6081 95.7222 16.5811 95.5816 16.5811C95.4222 16.5811 95.2909 16.6351 95.1878 16.7432C95.0893 16.8468 95.0401 16.9865 95.0401 17.1622V17.5811H95.9402V18.1486H95.0401V20.8919H94.3931V18.1486H93.7462V17.5811H94.3931V17.1014C94.3931 16.7725 94.501 16.5068 94.7166 16.3041C94.937 16.1014 95.2182 16 95.5605 16Z" fill="#0086FF"/>
<path d="M97.2071 20.8919H96.5602V17.5811H97.179V18.1216H97.2071C97.2727 17.9459 97.4064 17.7973 97.6079 17.6757C97.8142 17.5495 98.0158 17.4865 98.2127 17.4865C98.4002 17.4865 98.5596 17.5135 98.6909 17.5676L98.494 18.1689C98.4143 18.1374 98.2877 18.1216 98.1143 18.1216C97.8705 18.1216 97.6572 18.2162 97.4743 18.4054C97.2962 18.5946 97.2071 18.8153 97.2071 19.0676V20.8919Z" fill="#0086FF"/>
<path d="M98.705 19.2365C98.705 18.7275 98.8714 18.3063 99.2043 17.973C99.5418 17.6396 99.9661 17.473 100.477 17.473C100.988 17.473 101.41 17.6396 101.743 17.973C102.08 18.3063 102.249 18.7275 102.249 19.2365C102.249 19.75 102.08 20.1712 101.743 20.5C101.41 20.8333 100.988 21 100.477 21C99.9661 21 99.5418 20.8333 99.2043 20.5C98.8714 20.1667 98.705 19.7455 98.705 19.2365ZM99.3519 19.2365C99.3519 19.5923 99.4598 19.8806 99.6754 20.1014C99.8911 20.3221 100.158 20.4324 100.477 20.4324C100.796 20.4324 101.063 20.3221 101.279 20.1014C101.494 19.8806 101.602 19.5923 101.602 19.2365C101.602 18.8851 101.494 18.5991 101.279 18.3784C101.058 18.1532 100.791 18.0405 100.477 18.0405C100.163 18.0405 99.8958 18.1532 99.6754 18.3784C99.4598 18.5991 99.3519 18.8851 99.3519 19.2365Z" fill="#0086FF"/>
<path d="M103.415 20.8919H102.768V17.5811H103.387V18.0405H103.415C103.514 17.8784 103.664 17.7432 103.865 17.6351C104.071 17.527 104.275 17.473 104.477 17.473C104.73 17.473 104.953 17.5293 105.145 17.6419C105.337 17.7545 105.478 17.9099 105.567 18.1081C105.853 17.6847 106.249 17.473 106.755 17.473C107.154 17.473 107.461 17.5901 107.677 17.8243C107.892 18.0586 108 18.3919 108 18.8243V20.8919H107.353V18.9189C107.353 18.6081 107.294 18.3851 107.177 18.25C107.06 18.1104 106.863 18.0405 106.587 18.0405C106.338 18.0405 106.129 18.1419 105.961 18.3446C105.792 18.5473 105.708 18.786 105.708 19.0608V20.8919H105.061V18.9189C105.061 18.6081 105.002 18.3851 104.885 18.25C104.768 18.1104 104.571 18.0405 104.294 18.0405C104.046 18.0405 103.837 18.1419 103.668 18.3446C103.499 18.5473 103.415 18.786 103.415 19.0608V20.8919Z" fill="#0086FF"/>
<path d="M73.4791 34.2707C73.4791 35.8268 73.0087 37.0664 72.068 37.9896C71.011 39.0892 69.621 39.639 67.8981 39.639C66.2492 39.639 64.8539 39.0788 63.7123 37.9585C62.5708 36.8382 62 35.4585 62 33.8195C62 32.1805 62.5708 30.8008 63.7123 29.6805C64.8539 28.5602 66.2492 28 67.8981 28C68.7331 28 69.5206 28.1452 70.2605 28.4357C71.0004 28.7261 71.6082 29.1359 72.0838 29.6649L71.0374 30.6919C70.6886 30.277 70.2341 29.9554 69.6739 29.7272C69.1242 29.4886 68.5323 29.3693 67.8981 29.3693C66.6614 29.3693 65.615 29.7894 64.7588 30.6297C63.9132 31.4803 63.4904 32.5436 63.4904 33.8195C63.4904 35.0954 63.9132 36.1587 64.7588 37.0093C65.615 37.8496 66.6614 38.2697 67.8981 38.2697C69.0291 38.2697 69.9698 37.9585 70.7203 37.3361C71.4708 36.7137 71.9041 35.8579 72.0204 34.7687H67.8981V33.4305H73.3998C73.4527 33.721 73.4791 34.001 73.4791 34.2707Z" fill="#0086FF"/>
<path d="M74.4763 35.5778C74.4763 34.4056 74.8516 33.4357 75.602 32.6681C76.3631 31.9004 77.3197 31.5166 78.4718 31.5166C79.624 31.5166 80.5753 31.9004 81.3257 32.6681C82.0868 33.4357 82.4673 34.4056 82.4673 35.5778C82.4673 36.7604 82.0868 37.7303 81.3257 38.4876C80.5753 39.2552 79.624 39.639 78.4718 39.639C77.3197 39.639 76.3631 39.2552 75.602 38.4876C74.8516 37.7199 74.4763 36.75 74.4763 35.5778ZM75.935 35.5778C75.935 36.3973 76.1781 37.0612 76.6643 37.5695C77.1506 38.0778 77.7531 38.332 78.4718 38.332C79.1906 38.332 79.7931 38.0778 80.2793 37.5695C80.7655 37.0612 81.0086 36.3973 81.0086 35.5778C81.0086 34.7687 80.7655 34.11 80.2793 33.6017C79.7825 33.083 79.18 32.8237 78.4718 32.8237C77.7636 32.8237 77.1611 33.083 76.6643 33.6017C76.1781 34.11 75.935 34.7687 75.935 35.5778Z" fill="#0086FF"/>
<path d="M83.3484 35.5778C83.3484 34.4056 83.7236 33.4357 84.4741 32.6681C85.2351 31.9004 86.1917 31.5166 87.3439 31.5166C88.496 31.5166 89.4473 31.9004 90.1978 32.6681C90.9588 33.4357 91.3393 34.4056 91.3393 35.5778C91.3393 36.7604 90.9588 37.7303 90.1978 38.4876C89.4473 39.2552 88.496 39.639 87.3439 39.639C86.1917 39.639 85.2351 39.2552 84.4741 38.4876C83.7236 37.7199 83.3484 36.75 83.3484 35.5778ZM84.807 35.5778C84.807 36.3973 85.0502 37.0612 85.5364 37.5695C86.0226 38.0778 86.6251 38.332 87.3439 38.332C88.0626 38.332 88.6651 38.0778 89.1513 37.5695C89.6376 37.0612 89.8807 36.3973 89.8807 35.5778C89.8807 34.7687 89.6376 34.11 89.1513 33.6017C88.6545 33.083 88.052 32.8237 87.3439 32.8237C86.6357 32.8237 86.0332 33.083 85.5364 33.6017C85.0502 34.11 84.807 34.7687 84.807 35.5778Z" fill="#0086FF"/>
<path d="M96.1525 38.332C96.8712 38.332 97.4579 38.0778 97.9124 37.5695C98.388 37.0612 98.6259 36.3973 98.6259 35.5778C98.6259 34.779 98.388 34.1203 97.9124 33.6017C97.4473 33.083 96.8607 32.8237 96.1525 32.8237C95.4548 32.8237 94.8682 33.083 94.3926 33.6017C93.9169 34.1203 93.6791 34.779 93.6791 35.5778C93.6791 36.3869 93.9169 37.0456 94.3926 37.5539C94.8682 38.0726 95.4548 38.332 96.1525 38.332ZM96.1049 43C95.6715 43 95.2646 42.9429 94.8841 42.8288C94.5035 42.7251 94.1547 42.5747 93.8376 42.3776C93.5311 42.1805 93.2668 41.9471 93.0449 41.6774C92.8229 41.4077 92.6538 41.1068 92.5375 40.7749L93.9169 40.2147C94.0754 40.6608 94.3503 41.0187 94.7414 41.2884C95.1325 41.5581 95.587 41.6929 96.1049 41.6929C96.8977 41.6929 97.516 41.4595 97.9599 40.9927C98.4039 40.5259 98.6259 39.8828 98.6259 39.0633V38.332H98.5624C98.2876 38.7365 97.9124 39.0581 97.4367 39.2967C96.9716 39.5249 96.4643 39.639 95.9146 39.639C94.8999 39.639 94.0279 39.25 93.2985 38.472C92.5798 37.6732 92.2204 36.7085 92.2204 35.5778C92.2204 34.4471 92.5798 33.4876 93.2985 32.6992C94.0279 31.9108 94.8999 31.5166 95.9146 31.5166C96.4643 31.5166 96.9716 31.6359 97.4367 31.8745C97.9124 32.1027 98.2876 32.4191 98.5624 32.8237H98.6259V31.7656H100.021V39.0633C100.021 40.2873 99.667 41.2469 98.9588 41.9419C98.2401 42.6473 97.2887 43 96.1049 43Z" fill="#0086FF"/>
<path d="M103.258 28.249V39.39H101.8V28.249H103.258Z" fill="#0086FF"/>
<path d="M108.446 39.639C107.305 39.639 106.364 39.2552 105.624 38.4876C104.884 37.7199 104.514 36.75 104.514 35.5778C104.514 34.416 104.874 33.4512 105.592 32.6836C106.311 31.9056 107.231 31.5166 108.351 31.5166C109.503 31.5166 110.418 31.8849 111.094 32.6214C111.781 33.3475 112.125 34.3693 112.125 35.6867L112.109 35.8423H106.005C106.026 36.5892 106.279 37.1909 106.766 37.6473C107.252 38.1037 107.833 38.332 108.51 38.332C109.44 38.332 110.169 37.8755 110.698 36.9627L111.998 37.5851C111.649 38.2282 111.163 38.7313 110.539 39.0944C109.926 39.4575 109.229 39.639 108.446 39.639ZM106.116 34.6598H110.571C110.529 34.1307 110.307 33.695 109.905 33.3527C109.514 33 108.985 32.8237 108.32 32.8237C107.77 32.8237 107.294 32.9896 106.893 33.3216C106.501 33.6535 106.242 34.0996 106.116 34.6598Z" fill="#0086FF"/>
<path d="M118.655 34.8776V39.39H117.196V28.249H121.065C122.048 28.249 122.883 28.5705 123.57 29.2137C124.267 29.8568 124.616 30.64 124.616 31.5633C124.616 32.5073 124.267 33.2956 123.57 33.9284C122.893 34.5612 122.058 34.8776 121.065 34.8776H118.655ZM118.655 29.6183V33.5083H121.096C121.678 33.5083 122.159 33.3164 122.539 32.9326C122.93 32.5488 123.126 32.0923 123.126 31.5633C123.126 31.0446 122.93 30.5934 122.539 30.2095C122.159 29.8154 121.678 29.6183 121.096 29.6183H118.655Z" fill="#0086FF"/>
<path d="M127.428 28.249V39.39H125.969V28.249H127.428Z" fill="#0086FF"/>
<path d="M130.19 37.056C130.19 37.4295 130.349 37.7407 130.666 37.9896C130.994 38.2386 131.374 38.3631 131.807 38.3631C132.421 38.3631 132.965 38.14 133.441 37.694C133.927 37.2479 134.17 36.7241 134.17 36.1224C133.715 35.7697 133.081 35.5934 132.267 35.5934C131.675 35.5934 131.179 35.7334 130.777 36.0135C130.386 36.2936 130.19 36.6411 130.19 37.056ZM132.077 31.5166C133.155 31.5166 134.006 31.8019 134.63 32.3724C135.253 32.9326 135.565 33.7054 135.565 34.6909V39.39H134.17V38.332H134.106C133.504 39.2033 132.701 39.639 131.696 39.639C130.84 39.639 130.122 39.39 129.54 38.8921C128.969 38.3942 128.684 37.7718 128.684 37.0249C128.684 36.2365 128.985 35.6089 129.588 35.1421C130.201 34.6753 131.015 34.4419 132.029 34.4419C132.896 34.4419 133.61 34.5975 134.17 34.9087V34.582C134.17 34.084 133.969 33.6639 133.567 33.3216C133.166 32.9689 132.695 32.7925 132.156 32.7925C131.342 32.7925 130.698 33.1297 130.222 33.8039L128.938 33.0104C129.646 32.0145 130.692 31.5166 132.077 31.5166Z" fill="#0086FF"/>
<path d="M144 31.7656L139.132 42.751H137.626L139.434 38.9077L136.231 31.7656H137.817L140.131 37.2427H140.163L142.415 31.7656H144Z" fill="#0086FF"/>
<g clip-path="url(#clip0_251_1436)">
<path d="M32.884 28.4406L22.1074 17.6352L35.8184 25.5062L32.884 28.4406ZM19.2957 17C18.6605 17.332 18.2363 17.9375 18.2363 18.7234V40.2711C18.2363 41.057 18.6613 41.6625 19.2957 41.9945L31.8254 29.4945L19.2957 17ZM40.0566 28.0156L37.1809 26.3508L33.973 29.5L37.1809 32.6492L40.1152 30.9844C40.9941 30.2867 40.9941 28.7141 40.0566 28.0156V28.0156ZM22.1082 41.3656L35.8191 33.4945L32.8848 30.5602L22.1082 41.3656Z" fill="#0086FF"/>
</g>
<defs>
<clipPath id="clip0_251_1436">
<rect width="25" height="25" fill="white" transform="translate(17 17)"/>
</clipPath>
</defs>
</svg>
