<svg width="188" height="60" viewBox="0 0 188 60" fill="none" xmlns="http://www.w3.org/2000/svg">
<path d="M0 4.18604C0 1.87416 2.12194 0 4.7395 0H183.261C185.878 0 188 1.87416 188 4.18605V55.814C188 58.1258 185.878 60 183.261 60H4.7395C2.12194 60 0 58.1258 0 55.814V4.18604Z" fill="white"/>
<path fill-rule="evenodd" clip-rule="evenodd" d="M183.261 1.39535H4.7395C2.99446 1.39535 1.57983 2.64479 1.57983 4.18604V55.8139C1.57983 57.3552 2.99446 58.6046 4.7395 58.6046H183.261C185.006 58.6046 186.42 57.3552 186.42 55.8139V4.18605C186.42 2.64479 185.006 1.39535 183.261 1.39535ZM4.7395 0C2.12194 0 0 1.87416 0 4.18604V55.8139C0 58.1258 2.12194 60 4.7395 60H183.261C185.878 60 188 58.1258 188 55.8139V4.18605C188 1.87416 185.878 0 183.261 0H4.7395Z" fill="#0086FF"/>
<path d="M62 19.8919V15.0541H63.54C64.3089 15.0541 64.9253 15.277 65.3894 15.723C65.8583 16.1689 66.0927 16.7523 66.0927 17.473C66.0927 18.1982 65.8583 18.7838 65.3894 19.2297C64.9253 19.6712 64.3089 19.8919 63.54 19.8919H62ZM62.6469 15.6486V19.2973H63.54C64.126 19.2973 64.5878 19.1374 64.9253 18.8176C65.2629 18.4932 65.4316 18.045 65.4316 17.473C65.4316 16.9054 65.2629 16.4595 64.9253 16.1351C64.5878 15.8108 64.126 15.6486 63.54 15.6486H62.6469Z" fill="#0086FF"/>
<path d="M66.4496 18.2365C66.4496 17.7275 66.616 17.3063 66.9489 16.973C67.2864 16.6396 67.7107 16.473 68.2217 16.473C68.7327 16.473 69.1546 16.6396 69.4874 16.973C69.825 17.3063 69.9937 17.7275 69.9937 18.2365C69.9937 18.75 69.825 19.1712 69.4874 19.5C69.1546 19.8333 68.7327 20 68.2217 20C67.7107 20 67.2864 19.8333 66.9489 19.5C66.616 19.1667 66.4496 18.7455 66.4496 18.2365ZM67.0965 18.2365C67.0965 18.5923 67.2044 18.8806 67.42 19.1014C67.6357 19.3221 67.9029 19.4324 68.2217 19.4324C68.5404 19.4324 68.8077 19.3221 69.0233 19.1014C69.239 18.8806 69.3468 18.5923 69.3468 18.2365C69.3468 17.8851 69.239 17.5991 69.0233 17.3784C68.803 17.1532 68.5358 17.0405 68.2217 17.0405C67.9076 17.0405 67.6403 17.1532 67.42 17.3784C67.2044 17.5991 67.0965 17.8851 67.0965 18.2365Z" fill="#0086FF"/>
<path d="M75.393 16.5811L74.2819 19.8919H73.6209L72.763 17.3514L71.9121 19.8919H71.2581L70.1471 16.5811H70.8221L71.5886 19.0811H71.5957L72.4466 16.5811H73.1146L73.9655 19.0811H73.9725L74.732 16.5811H75.393Z" fill="#0086FF"/>
<path d="M75.8142 16.5811H76.4331V17.0405H76.4612C76.5596 16.8784 76.7097 16.7432 76.9112 16.6351C77.1175 16.527 77.3308 16.473 77.5512 16.473C77.9731 16.473 78.2966 16.5901 78.5216 16.8243C78.7513 17.0541 78.8662 17.3829 78.8662 17.8108V19.8919H78.2192V17.8514C78.2051 17.3108 77.9215 17.0405 77.3683 17.0405C77.1105 17.0405 76.8948 17.1419 76.7214 17.3446C76.5479 17.5428 76.4612 17.7815 76.4612 18.0608V19.8919H75.8142V16.5811Z" fill="#0086FF"/>
<path d="M80.2725 15.0541V19.8919H79.6256V15.0541H80.2725Z" fill="#0086FF"/>
<path d="M80.8296 18.2365C80.8296 17.7275 80.996 17.3063 81.3289 16.973C81.6664 16.6396 82.0907 16.473 82.6017 16.473C83.1127 16.473 83.5346 16.6396 83.8674 16.973C84.205 17.3063 84.3737 17.7275 84.3737 18.2365C84.3737 18.75 84.205 19.1712 83.8674 19.5C83.5346 19.8333 83.1127 20 82.6017 20C82.0907 20 81.6664 19.8333 81.3289 19.5C80.996 19.1667 80.8296 18.7455 80.8296 18.2365ZM81.4765 18.2365C81.4765 18.5923 81.5844 18.8806 81.8 19.1014C82.0157 19.3221 82.2829 19.4324 82.6017 19.4324C82.9204 19.4324 83.1877 19.3221 83.4033 19.1014C83.619 18.8806 83.7268 18.5923 83.7268 18.2365C83.7268 17.8851 83.619 17.5991 83.4033 17.3784C83.183 17.1532 82.9158 17.0405 82.6017 17.0405C82.2876 17.0405 82.0203 17.1532 81.8 17.3784C81.5844 17.5991 81.4765 17.8851 81.4765 18.2365Z" fill="#0086FF"/>
<path d="M85.4326 18.8784C85.4326 19.0405 85.5029 19.1757 85.6435 19.2838C85.7888 19.3919 85.9576 19.4459 86.1498 19.4459C86.4217 19.4459 86.6632 19.3491 86.8741 19.1554C87.0898 18.9617 87.1976 18.7342 87.1976 18.473C86.996 18.3198 86.7147 18.2432 86.3538 18.2432C86.0912 18.2432 85.8709 18.3041 85.6927 18.4257C85.5193 18.5473 85.4326 18.6982 85.4326 18.8784ZM86.2694 16.473C86.7475 16.473 87.1249 16.5968 87.4015 16.8446C87.6781 17.0878 87.8164 17.4234 87.8164 17.8514V19.8919H87.1976V19.4324H87.1695C86.9023 19.8108 86.546 20 86.1006 20C85.7209 20 85.4021 19.8919 85.1442 19.6757C84.8911 19.4595 84.7645 19.1892 84.7645 18.8649C84.7645 18.5225 84.8981 18.25 85.1653 18.0473C85.4372 17.8446 85.7982 17.7432 86.2483 17.7432C86.6327 17.7432 86.9491 17.8108 87.1976 17.9459V17.8041C87.1976 17.5878 87.1085 17.4054 86.9304 17.2568C86.7522 17.1036 86.5436 17.027 86.3045 17.027C85.9435 17.027 85.6576 17.1734 85.4466 17.4662L84.877 17.1216C85.1911 16.6892 85.6552 16.473 86.2694 16.473Z" fill="#0086FF"/>
<path d="M90.0588 19.4324C90.3776 19.4324 90.6378 19.3221 90.8394 19.1014C91.0503 18.8806 91.1558 18.5923 91.1558 18.2365C91.1558 17.8896 91.0503 17.6036 90.8394 17.3784C90.6331 17.1532 90.3729 17.0405 90.0588 17.0405C89.7494 17.0405 89.4892 17.1532 89.2783 17.3784C89.0673 17.6036 88.9618 17.8896 88.9618 18.2365C88.9618 18.5878 89.0673 18.8739 89.2783 19.0946C89.4892 19.3198 89.7494 19.4324 90.0588 19.4324ZM89.9533 20C89.5033 20 89.1165 19.8288 88.793 19.4865C88.4743 19.1396 88.3149 18.723 88.3149 18.2365C88.3149 17.75 88.4743 17.3333 88.793 16.9865C89.1165 16.6441 89.5033 16.473 89.9533 16.473C90.2065 16.473 90.4362 16.5248 90.6425 16.6284C90.8534 16.732 91.0152 16.8694 91.1277 17.0405H91.1558L91.1277 16.5811V15.0541H91.7746V19.8919H91.1558V19.4324H91.1277C91.0152 19.6036 90.8534 19.741 90.6425 19.8446C90.4362 19.9482 90.2065 20 89.9533 20Z" fill="#0086FF"/>
<path d="M95.5605 15C95.7949 15 95.9871 15.0383 96.1371 15.1149L95.9613 15.6622C95.8488 15.6081 95.7222 15.5811 95.5816 15.5811C95.4222 15.5811 95.2909 15.6351 95.1878 15.7432C95.0893 15.8468 95.0401 15.9865 95.0401 16.1622V16.5811H95.9402V17.1486H95.0401V19.8919H94.3931V17.1486H93.7462V16.5811H94.3931V16.1014C94.3931 15.7725 94.501 15.5068 94.7166 15.3041C94.937 15.1014 95.2182 15 95.5605 15Z" fill="#0086FF"/>
<path d="M97.2071 19.8919H96.5602V16.5811H97.179V17.1216H97.2071C97.2727 16.9459 97.4064 16.7973 97.6079 16.6757C97.8142 16.5495 98.0158 16.4865 98.2127 16.4865C98.4002 16.4865 98.5596 16.5135 98.6909 16.5676L98.494 17.1689C98.4143 17.1374 98.2877 17.1216 98.1143 17.1216C97.8705 17.1216 97.6572 17.2162 97.4743 17.4054C97.2962 17.5946 97.2071 17.8153 97.2071 18.0676V19.8919Z" fill="#0086FF"/>
<path d="M98.705 18.2365C98.705 17.7275 98.8714 17.3063 99.2043 16.973C99.5418 16.6396 99.9661 16.473 100.477 16.473C100.988 16.473 101.41 16.6396 101.743 16.973C102.08 17.3063 102.249 17.7275 102.249 18.2365C102.249 18.75 102.08 19.1712 101.743 19.5C101.41 19.8333 100.988 20 100.477 20C99.9661 20 99.5418 19.8333 99.2043 19.5C98.8714 19.1667 98.705 18.7455 98.705 18.2365ZM99.3519 18.2365C99.3519 18.5923 99.4598 18.8806 99.6754 19.1014C99.8911 19.3221 100.158 19.4324 100.477 19.4324C100.796 19.4324 101.063 19.3221 101.279 19.1014C101.494 18.8806 101.602 18.5923 101.602 18.2365C101.602 17.8851 101.494 17.5991 101.279 17.3784C101.058 17.1532 100.791 17.0405 100.477 17.0405C100.163 17.0405 99.8958 17.1532 99.6754 17.3784C99.4598 17.5991 99.3519 17.8851 99.3519 18.2365Z" fill="#0086FF"/>
<path d="M103.415 19.8919H102.768V16.5811H103.387V17.0405H103.415C103.514 16.8784 103.664 16.7432 103.865 16.6351C104.071 16.527 104.275 16.473 104.477 16.473C104.73 16.473 104.953 16.5293 105.145 16.6419C105.337 16.7545 105.478 16.9099 105.567 17.1081C105.853 16.6847 106.249 16.473 106.755 16.473C107.154 16.473 107.461 16.5901 107.677 16.8243C107.892 17.0586 108 17.3919 108 17.8243V19.8919H107.353V17.9189C107.353 17.6081 107.294 17.3851 107.177 17.25C107.06 17.1104 106.863 17.0405 106.587 17.0405C106.338 17.0405 106.129 17.1419 105.961 17.3446C105.792 17.5473 105.708 17.786 105.708 18.0608V19.8919H105.061V17.9189C105.061 17.6081 105.002 17.3851 104.885 17.25C104.768 17.1104 104.571 17.0405 104.294 17.0405C104.046 17.0405 103.837 17.1419 103.668 17.3446C103.499 17.5473 103.415 17.786 103.415 18.0608V19.8919Z" fill="#0086FF"/>
<path d="M68.0962 29.4494L65.8672 35.5823H70.4013L68.1724 29.4494H68.0962ZM63.9431 40.8987H62L67.1436 27.3038H69.1249L74.2685 40.8987H72.3254L71.0109 37.2152H65.2767L63.9431 40.8987Z" fill="#0086FF"/>
<path d="M80.2285 39.6076C81.0667 39.6076 81.7716 39.2911 82.3431 38.6582C82.9146 38.038 83.2004 37.2342 83.2004 36.2468C83.2004 35.2722 82.9146 34.4684 82.3431 33.8354C81.7716 33.2025 81.0667 32.8861 80.2285 32.8861C79.3776 32.8861 78.6663 33.2025 78.0948 33.8354C77.536 34.4684 77.2566 35.2722 77.2566 36.2468C77.2566 37.2342 77.536 38.0443 78.0948 38.6772C78.6663 39.2975 79.3776 39.6076 80.2285 39.6076ZM80.5142 41.2025C79.8284 41.2025 79.1998 41.057 78.6282 40.7658C78.0694 40.4747 77.6376 40.0886 77.3328 39.6076H77.2566L77.3328 40.8987V45H75.5802V31.5949H77.2566V32.8861H77.3328C77.6376 32.4051 78.0694 32.019 78.6282 31.7278C79.1998 31.4367 79.8284 31.2911 80.5142 31.2911C81.7462 31.2911 82.7876 31.7722 83.6385 32.7342C84.5148 33.7089 84.953 34.8797 84.953 36.2468C84.953 37.6266 84.5148 38.7975 83.6385 39.7595C82.7876 40.7215 81.7462 41.2025 80.5142 41.2025Z" fill="#0086FF"/>
<path d="M90.9444 39.6076C91.7826 39.6076 92.4875 39.2911 93.059 38.6582C93.6305 38.038 93.9163 37.2342 93.9163 36.2468C93.9163 35.2722 93.6305 34.4684 93.059 33.8354C92.4875 33.2025 91.7826 32.8861 90.9444 32.8861C90.0935 32.8861 89.3822 33.2025 88.8107 33.8354C88.2519 34.4684 87.9725 35.2722 87.9725 36.2468C87.9725 37.2342 88.2519 38.0443 88.8107 38.6772C89.3822 39.2975 90.0935 39.6076 90.9444 39.6076ZM91.2301 41.2025C90.5443 41.2025 89.9157 41.057 89.3441 40.7658C88.7853 40.4747 88.3535 40.0886 88.0487 39.6076H87.9725L88.0487 40.8987V45H86.2961V31.5949H87.9725V32.8861H88.0487C88.3535 32.4051 88.7853 32.019 89.3441 31.7278C89.9157 31.4367 90.5443 31.2911 91.2301 31.2911C92.4621 31.2911 93.5035 31.7722 94.3544 32.7342C95.2307 33.7089 95.6689 34.8797 95.6689 36.2468C95.6689 37.6266 95.2307 38.7975 94.3544 39.7595C93.5035 40.7215 92.4621 41.2025 91.2301 41.2025Z" fill="#0086FF"/>
<path d="M109.609 37.2722C109.609 38.462 109.17 39.4177 108.294 40.1392C107.405 40.8481 106.325 41.2025 105.055 41.2025C103.925 41.2025 102.928 40.8734 102.065 40.2152C101.201 39.557 100.604 38.6582 100.274 37.519L101.95 36.8354C102.065 37.2405 102.223 37.6076 102.426 37.9367C102.63 38.2658 102.865 38.5506 103.131 38.7911C103.411 39.019 103.716 39.2025 104.046 39.3418C104.376 39.4684 104.725 39.5316 105.094 39.5316C105.894 39.5316 106.548 39.3291 107.056 38.9241C107.564 38.5063 107.818 37.9557 107.818 37.2722C107.818 36.7025 107.608 36.2152 107.189 35.8101C106.795 35.4177 106.059 35.038 104.979 34.6709C103.887 34.2785 103.208 34.0127 102.941 33.8734C101.493 33.1392 100.769 32.057 100.769 30.6266C100.769 29.6266 101.169 28.7722 101.969 28.0633C102.782 27.3544 103.779 27 104.96 27C106.002 27 106.903 27.2658 107.665 27.7975C108.427 28.3165 108.935 28.9684 109.189 29.7532L107.551 30.4367C107.399 29.9304 107.094 29.5127 106.637 29.1835C106.192 28.8418 105.646 28.6709 104.998 28.6709C104.312 28.6709 103.735 28.8608 103.265 29.2405C102.795 29.5949 102.56 30.057 102.56 30.6266C102.56 31.0949 102.744 31.5 103.112 31.8418C103.519 32.1835 104.401 32.5886 105.76 33.057C107.145 33.5253 108.129 34.1013 108.713 34.7848C109.31 35.4557 109.609 36.2848 109.609 37.2722Z" fill="#0086FF"/>
<path d="M114.625 41.0506C113.863 41.0506 113.228 40.8165 112.72 40.3481C112.225 39.8797 111.971 39.2278 111.958 38.3924V33.1899H110.32V31.5949H111.958V28.7468H113.711V31.5949H115.997V33.1899H113.711V37.8228C113.711 38.443 113.832 38.8671 114.073 39.0949C114.314 39.3101 114.587 39.4177 114.892 39.4177C115.032 39.4177 115.165 39.4051 115.292 39.3797C115.432 39.3418 115.559 39.2975 115.673 39.2468L116.226 40.8038C115.768 40.9684 115.235 41.0506 114.625 41.0506Z" fill="#0086FF"/>
<path d="M117.038 36.2468C117.038 34.8165 117.489 33.6329 118.39 32.6962C119.305 31.7595 120.454 31.2911 121.838 31.2911C123.223 31.2911 124.366 31.7595 125.268 32.6962C126.182 33.6329 126.639 34.8165 126.639 36.2468C126.639 37.6899 126.182 38.8734 125.268 39.7975C124.366 40.7342 123.223 41.2025 121.838 41.2025C120.454 41.2025 119.305 40.7342 118.39 39.7975C117.489 38.8608 117.038 37.6772 117.038 36.2468ZM118.79 36.2468C118.79 37.2468 119.083 38.057 119.667 38.6772C120.251 39.2975 120.975 39.6076 121.838 39.6076C122.702 39.6076 123.426 39.2975 124.01 38.6772C124.594 38.057 124.887 37.2468 124.887 36.2468C124.887 35.2595 124.594 34.4557 124.01 33.8354C123.413 33.2025 122.689 32.8861 121.838 32.8861C120.988 32.8861 120.264 33.2025 119.667 33.8354C119.083 34.4557 118.79 35.2595 118.79 36.2468Z" fill="#0086FF"/>
<path d="M129.798 40.8987H128.045V31.5949H129.722V33.1139H129.798C129.976 32.6203 130.338 32.2025 130.884 31.8608C131.443 31.5063 131.989 31.3291 132.522 31.3291C133.03 31.3291 133.462 31.4051 133.818 31.557L133.284 33.2468C133.068 33.1582 132.725 33.1139 132.255 33.1139C131.595 33.1139 131.017 33.3797 130.522 33.9114C130.039 34.443 129.798 35.0633 129.798 35.7722V40.8987Z" fill="#0086FF"/>
<path d="M138.58 41.2025C137.209 41.2025 136.078 40.7342 135.189 39.7975C134.3 38.8608 133.856 37.6772 133.856 36.2468C133.856 34.8291 134.288 33.6519 135.151 32.7152C136.015 31.7658 137.12 31.2911 138.466 31.2911C139.85 31.2911 140.949 31.7405 141.762 32.6392C142.587 33.5253 143 34.7722 143 36.3797L142.981 36.5696H135.647C135.672 37.481 135.977 38.2152 136.561 38.7722C137.145 39.3291 137.844 39.6076 138.656 39.6076C139.774 39.6076 140.65 39.0506 141.285 37.9367L142.848 38.6962C142.428 39.481 141.844 40.0949 141.095 40.538C140.358 40.981 139.52 41.2025 138.58 41.2025ZM135.78 35.1266H141.133C141.082 34.481 140.816 33.9494 140.333 33.5316C139.863 33.1013 139.228 32.8861 138.428 32.8861C137.767 32.8861 137.196 33.0886 136.713 33.4937C136.243 33.8987 135.932 34.443 135.78 35.1266Z" fill="#0086FF"/>
<path d="M20.1237 34.7077C19.8474 34.7077 19.5825 34.598 19.3871 34.4026C19.1918 34.2073 19.082 33.9423 19.082 33.666C19.082 33.3898 19.1918 33.1248 19.3871 32.9295C19.5825 32.7341 19.8474 32.6244 20.1237 32.6244H31.0612C32.1029 32.6244 33.1445 34.7077 32.6237 34.7077H20.1237ZM34.707 34.7077C34.4308 34.7077 34.1658 34.598 33.9705 34.4026C33.7751 34.2073 33.6654 33.9423 33.6654 33.666C33.6654 33.3898 33.7751 33.1248 33.9705 32.9295C34.1658 32.7341 34.4308 32.6244 34.707 32.6244H38.8737C39.15 32.6244 39.4149 32.7341 39.6103 32.9295C39.8056 33.1248 39.9154 33.3898 39.9154 33.666C39.9154 33.9423 39.8056 34.2073 39.6103 34.4026C39.4149 34.598 39.15 34.7077 38.8737 34.7077H34.707ZM30.1581 20.6463C30.2959 20.4067 30.5233 20.2318 30.7901 20.1599C31.057 20.088 31.3415 20.1251 31.581 20.2629C31.8205 20.4008 31.9955 20.6281 32.0674 20.895C32.1392 21.1618 32.1022 21.4463 31.9643 21.6858L24.7695 34.1817C24.7013 34.3003 24.6105 34.4043 24.5021 34.4878C24.3937 34.5712 24.2699 34.6325 24.1378 34.6682C24.0058 34.7038 23.8679 34.7131 23.7323 34.6955C23.5966 34.6779 23.4657 34.6337 23.3471 34.5655C23.2285 34.4973 23.1245 34.4065 23.0411 34.2981C22.9576 34.1897 22.8963 34.0659 22.8606 33.9338C22.825 33.8017 22.8157 33.6639 22.8333 33.5283C22.8509 33.3926 22.8951 33.2617 22.9633 33.1431L30.1581 20.6452V20.6463ZM21.1654 36.2702C21.6862 35.2285 24.8112 34.1869 23.7695 35.9785C23.2043 36.9449 22.6373 37.9102 22.0685 38.8744C21.9306 39.1139 21.7033 39.2889 21.4364 39.3607C21.1696 39.4326 20.8851 39.3956 20.6456 39.2577C20.406 39.1199 20.2311 38.8925 20.1592 38.6256C20.0873 38.3588 20.1244 38.0743 20.2622 37.8348L21.1654 36.2702ZM26.5122 21.6858C26.3744 21.4463 26.3373 21.1618 26.4092 20.895C26.4811 20.6281 26.656 20.4008 26.8956 20.2629C27.1351 20.1251 27.4196 20.088 27.6864 20.1599C27.9533 20.2318 28.1806 20.4067 28.3185 20.6463L30.1341 23.8015C30.2045 23.9201 30.2507 24.0515 30.2699 24.1881C30.2891 24.3248 30.281 24.4638 30.2461 24.5973C30.2111 24.7307 30.15 24.8559 30.0662 24.9656C29.9825 25.0752 29.8778 25.1671 29.7583 25.2359C29.6387 25.3048 29.5067 25.3492 29.3698 25.3666C29.233 25.384 29.094 25.3741 28.961 25.3373C28.828 25.3006 28.7037 25.2378 28.5952 25.1526C28.4867 25.0674 28.3962 24.9615 28.3289 24.8411L26.5122 21.6858ZM30.5404 28.9785C29.6049 27.4161 30.5404 24.2911 31.2862 25.8494L38.2133 37.8327C38.3468 38.0718 38.3807 38.3539 38.3078 38.6179C38.2349 38.8819 38.0609 39.1065 37.8236 39.2432C37.5863 39.3799 37.3047 39.4176 37.0397 39.3482C36.7748 39.2787 36.5479 39.1078 36.4081 38.8723L30.5404 28.9785Z" fill="#0086FF"/>
</svg>
