<svg width="202" height="48" viewBox="0 0 202 48" fill="none" xmlns="http://www.w3.org/2000/svg">
<path d="M81.2524 20.929C80.3987 20.0751 79.3897 19.4042 78.2254 18.901C77.0612 18.4131 75.8039 18.1539 74.4689 18.1539C73.3823 18.1539 72.3422 18.3369 71.3489 18.6876C70.5261 18.9773 69.7811 19.3737 69.1135 19.8769V11.7956C69.1135 11.2925 68.6323 10.9113 68.1356 11.018L65.6364 11.5517C65.2639 11.6279 65 11.9481 65 12.3293V34.6671C65 35.9479 66.0555 37 67.375 37H76.7819C77.2631 36.878 77.7287 36.7255 78.1789 36.5426C79.3586 36.0547 80.3987 35.3685 81.2369 34.5147C82.0907 33.6608 82.7736 32.6392 83.2548 31.4651C83.7516 30.2911 84 29.0254 84 27.6989C84 26.3724 83.7516 25.1069 83.2548 23.9481C82.7892 22.8044 82.1062 21.7828 81.2524 20.929ZM78.2564 32.014C77.2631 33.0051 76.0367 33.5692 74.6087 33.6913C74.5931 33.6913 74.562 33.6913 74.5466 33.6913C74.3758 33.7065 74.1895 33.7065 74.0188 33.7065C73.8325 33.7065 73.6462 33.7065 73.46 33.6913C73.4444 33.6913 73.4134 33.6913 73.3978 33.6913H69.9363C69.4861 33.6913 69.1291 33.3406 69.1291 32.8984V23.7498C69.6878 23.1246 70.4019 22.6367 71.2246 22.2861C72.0784 21.9201 73.0253 21.7371 74.0188 21.7371C75.6797 21.7371 77.1078 22.3165 78.2564 23.4601C79.4052 24.6036 79.995 26.0522 79.995 27.7446C79.9796 29.4524 79.4052 30.8857 78.2564 32.014Z" fill="#0086FF"/>
<path d="M86.942 37H90.058C90.5834 37 91 36.6444 91 36.1961V18.8039C91 18.3556 90.5834 18 90.058 18H86.942C86.4167 18 86 18.3556 86 18.8039V36.1961C86 36.6444 86.4348 37 86.942 37Z" fill="#0086FF"/>
<path d="M86.942 15H90.058C90.5834 15 91 14.6667 91 14.2464V11.7536C91 11.3333 90.5834 11 90.058 11H86.942C86.4167 11 86 11.3333 86 11.7536V14.2464C86 14.6667 86.4348 15 86.942 15Z" fill="#0086FF"/>
<path d="M98.4639 19.4544C98.3726 19.5317 98.2812 19.6091 98.205 19.6865V18.8045C98.205 18.3558 97.8546 18 97.4127 18H94.7922C94.3505 18 94 18.3558 94 18.8045V36.1955C94 36.6441 94.3505 37 94.7922 37H97.4127C97.8546 37 98.205 36.6441 98.205 36.1955V25.8909C98.205 25.1791 98.3573 24.4984 98.6468 23.8949C98.7839 23.6009 98.9363 23.3843 99.0734 23.276C100.216 22.2858 101.694 21.7443 103.263 21.7597H104.208C104.65 21.7597 105 21.4039 105 20.9552V18.8045C105 18.3558 104.65 18 104.208 18H102.501C101.023 18 99.5762 18.5105 98.4639 19.4544Z" fill="#0086FF"/>
<path d="M121.367 21.6176C121.636 21.2929 121.795 20.8755 121.795 20.4427L121.81 18.8039C121.81 18.3556 121.446 18 120.988 18H106.917C106.459 18 106.095 18.3556 106.095 18.8039V20.9529C106.095 21.4011 106.459 21.7568 106.917 21.7568H116.119L106.443 33.3515C106.174 33.6761 106.016 34.0936 106.016 34.5265L106 36.1961C106 36.6444 106.364 37 106.822 37H121.178C121.636 37 122 36.6444 122 36.1961V34.0471C122 33.5989 121.636 33.2432 121.178 33.2432H111.644L121.367 21.6176Z" fill="#0086FF"/>
<path d="M139.25 20.7487C138.408 19.9075 137.386 19.2317 136.228 18.736C135.071 18.2403 133.823 18 132.516 18C131.208 18 129.959 18.2403 128.802 18.736C127.645 19.2166 126.623 19.8925 125.766 20.7487C124.909 21.5898 124.218 22.6111 123.737 23.7676C123.241 24.9241 123 26.1708 123 27.4775C123 28.8142 123.241 30.0759 123.737 31.2324C124.218 32.3889 124.909 33.3953 125.766 34.2515C126.623 35.0926 127.645 35.7684 128.802 36.264C129.959 36.7447 131.208 37 132.516 37C133.823 37 135.071 36.7447 136.228 36.264C137.386 35.7684 138.392 35.0926 139.25 34.2515C140.092 33.4103 140.768 32.3889 141.264 31.2324C141.745 30.0759 142 28.8142 142 27.4775C142 26.1708 141.745 24.9241 141.264 23.7676C140.768 22.6111 140.092 21.5898 139.25 20.7487ZM136.454 31.698C135.371 32.8396 134.048 33.4253 132.516 33.4253C130.952 33.4253 129.614 32.8396 128.532 31.698C127.45 30.5415 126.894 29.1296 126.894 27.4625C126.894 25.8103 127.45 24.3984 128.547 23.2569C129.644 22.1155 130.967 21.5447 132.501 21.5447C134.034 21.5447 135.356 22.1155 136.439 23.2569C137.521 24.3984 138.077 25.8103 138.077 27.4625C138.092 29.1296 137.536 30.5565 136.454 31.698Z" fill="#0086FF"/>
<path d="M161.249 20.7487C160.408 19.9075 159.385 19.2317 158.228 18.736C157.07 18.2403 155.823 18 154.515 18C153.207 18 151.96 18.2403 150.803 18.736C149.645 19.2166 148.623 19.8925 147.766 20.7487C146.909 21.5898 146.218 22.6111 145.737 23.7676C145.241 24.9241 145 26.1708 145 27.4775C145 28.8142 145.241 30.0759 145.737 31.2324C146.218 32.3889 146.909 33.3953 147.766 34.2515C148.623 35.0926 149.645 35.7684 150.803 36.264C151.96 36.7447 153.207 37 154.515 37C155.823 37 157.07 36.7447 158.228 36.264C159.385 35.7684 160.393 35.0926 161.249 34.2515C162.091 33.4103 162.767 32.3889 163.263 31.2324C163.744 30.0759 164 28.8142 164 27.4775C164 26.1708 163.744 24.9241 163.263 23.7676C162.767 22.6111 162.091 21.5898 161.249 20.7487ZM158.453 31.698C157.37 32.8396 156.048 33.4253 154.515 33.4253C152.952 33.4253 151.614 32.8396 150.547 31.698C149.464 30.5415 148.909 29.1296 148.909 27.4625C148.909 25.8103 149.464 24.3984 150.562 23.2569C151.659 22.1155 152.982 21.5447 154.515 21.5447C156.048 21.5447 157.37 22.1155 158.453 23.2569C159.536 24.3984 160.091 25.8103 160.091 27.4625C160.091 29.1296 159.536 30.5565 158.453 31.698Z" fill="#0086FF"/>
<path d="M192.987 20.0774C191.652 18.7127 189.916 18.0152 187.827 18.0152C186.491 18.0152 185.277 18.2882 184.187 18.8037C183.234 19.2737 182.405 19.9258 181.683 20.775C181.115 19.9713 180.378 19.3192 179.486 18.8341C178.458 18.273 177.306 18 176.031 18C174.971 18 173.973 18.182 173.082 18.5611C172.422 18.8341 171.808 19.198 171.239 19.6528V18.7885C171.239 18.3488 170.885 18 170.44 18H167.798C167.353 18 167 18.3488 167 18.7885V36.2115C167 36.6513 167.353 37 167.798 37H170.44C170.885 37 171.239 36.6513 171.239 36.2115V23.7016C171.7 23.0647 172.237 22.5642 172.852 22.2458C173.497 21.9123 174.218 21.7303 175.018 21.7303C176.216 21.7303 177.137 22.0942 177.843 22.8372C178.534 23.5802 178.887 24.6417 178.887 25.9609V36.2115C178.887 36.6513 179.241 37 179.687 37H182.298C182.743 37 183.096 36.6513 183.096 36.2115V25.3695C183.096 25.1117 183.081 24.8237 183.065 24.5507C183.051 24.3232 183.02 24.0958 182.973 23.8835C183.449 23.186 184.017 22.6553 184.647 22.2913C185.308 21.9274 186.06 21.7303 186.889 21.7303C188.087 21.7303 189.01 22.0942 189.716 22.8372C190.407 23.5802 190.76 24.6417 190.76 25.9609V36.2115C190.76 36.6513 191.114 37 191.559 37H194.201C194.646 37 195 36.6513 195 36.2115V25.3695C195 23.2315 194.323 21.4421 192.987 20.0774Z" fill="#0086FF"/>
<path d="M11.4986 4.20259C10.7359 4.3572 10.0567 4.53558 9.46094 4.73775C9.03196 4.60693 8.20975 4.38098 7.10156 4.13124C7.59013 2.84686 8.12634 1.65763 8.50765 0.86084L10.6168 2.00251C10.9147 2.71605 11.2245 3.45337 11.4986 4.20259Z" fill="#0086FF"/>
<path d="M13.8945 3.81053C13.5728 3.8462 13.2511 3.89378 12.9175 3.95324C12.8102 3.66782 12.703 3.3824 12.5957 3.10889L13.8945 3.81053Z" fill="#0086FF"/>
<path d="M17.6481 5.84387C16.9807 6.83093 16.2539 7.79422 15.4795 8.7456C14.967 8.19856 14.4785 7.72286 14.0137 7.33042C13.9303 6.99743 13.7277 6.28388 13.418 5.30872C14.3831 5.166 15.3245 5.07086 16.1109 4.99951L17.6481 5.84387Z" fill="#0086FF"/>
<path d="M11.4758 32.0429C10.9276 30.6038 10.308 29.2006 9.62879 27.8925L9.39046 27.4286L13.0844 23.742L9.31897 20.6143C9.31897 20.6143 10.725 17.8195 11.4758 15.8335C10.3556 15.5838 9.54538 15.3579 9.11639 15.2271C8.5206 15.4293 7.84139 15.6076 7.07877 15.7623C7.63882 17.2487 9.1998 20.6262 9.1998 20.6262L5.50586 24.1344L9.21173 27.3691L9.00915 27.7615C8.99724 27.7854 7.94863 29.807 7.09068 32.1142C8.03205 32.3282 8.72317 32.5304 9.10448 32.6375C9.77177 32.4234 10.5701 32.2212 11.4758 32.0429Z" fill="#0086FF"/>
<path d="M3.08561 11.2192C2.10849 12.3966 1.2148 13.6214 0.428344 14.8464L0.273438 15.0842L5.15898 14.6442C5.15898 14.6442 4.6466 12.9556 4.56319 12.6226C4.08654 12.242 3.59799 11.7663 3.08561 11.2192Z" fill="#0086FF"/>
<path d="M0.046875 16.7493V20.8164L4.38428 23.2306L7.43477 20.1861C7.43477 20.1861 6.17168 17.4747 5.63545 16.0356C3.70507 16.3211 0.046875 16.7493 0.046875 16.7493Z" fill="#003399"/>
<path d="M23.462 12.0516L19.2795 13.6095C18.7075 12.7651 17.6708 11.2905 16.4316 9.83959C17.3253 8.76929 18.1593 7.66329 18.9101 6.54541L23.3905 8.98334L23.462 12.0516Z" fill="#003399"/>
<path d="M12.8812 16.1309C12.2257 17.9028 11.4631 19.5083 11.0938 20.2575L14.2753 22.8857L18.0407 20.6262L17.0636 16.6779C15.6814 16.5709 14.2753 16.3925 12.8812 16.1309Z" fill="#003399"/>
<path d="M24.6895 18.0452L23.5813 13.5261L18.5409 15.0721C18.5409 15.0721 17.111 12.872 15.4904 10.9336C14.7516 11.7542 14.1796 12.3251 13.9294 12.5748C13.8102 13.2408 13.3574 14.7749 13.3574 14.7749L18.374 15.3576L19.3631 20.0789L24.5108 18.3187L27.5375 22.7665C27.5375 22.7665 28.8958 21.3037 29.1699 21.0421C29.2772 20.4475 29.444 19.7934 29.6585 19.0917C28.2643 18.8658 24.6895 18.0452 24.6895 18.0452Z" fill="#0086FF"/>
<path d="M2.12104 10.1371C1.37033 11.0409 0.655378 11.9804 0 12.9318V7.40186C0.571967 8.18675 1.29884 9.17382 2.12104 10.1371Z" fill="#003399"/>
<path d="M5.20708 5.20178C4.95684 5.99857 4.76619 6.73589 4.63512 7.40186C4.37296 7.6516 3.80099 8.22243 3.07413 9.043C1.60846 7.28294 0.404949 5.48719 0.178545 5.13043L0.0117188 4.88068C0.0236347 4.70229 0.0355507 4.5358 0.0712985 4.35742C0.571768 4.44067 3.84865 4.95203 5.20708 5.20178Z" fill="#0086FF"/>
<path d="M7.19696 0.266377C6.79182 1.12263 6.20795 2.43079 5.67172 3.84598C4.27756 3.58434 1.87054 3.13243 0.488281 3.0254C1.6203 0.694501 4.51587 -0.589873 7.19696 0.266377Z" fill="#003399"/>
<path d="M23.6775 19.9839L19.5547 21.518V26.0133L19.7334 26.1203L24.0469 27.2858C24.8215 26.1084 25.6795 24.9668 26.5969 23.8608C25.3339 22.3624 24.2614 20.8521 23.6775 19.9839Z" fill="#003399"/>
<path d="M15.5391 23.7894L18.1248 25.2285V22.2197L15.5391 23.7894Z" fill="#0086FF"/>
<path d="M11.1289 27.7021C11.7843 28.9984 12.38 30.3779 12.9044 31.805C14.7036 31.5433 16.3838 31.4363 17.1822 31.4006L18.052 26.8102L14.1794 24.6577L11.1289 27.7021Z" fill="#003399"/>
<path d="M19.3753 27.4634L18.4102 32.5889L23.963 34.1111L24.9639 28.9975L19.3753 27.4634Z" fill="#0086FF"/>
<path d="M13.3828 33.1713C13.7284 34.2059 13.9191 34.9433 14.0024 35.2406C14.4671 35.6331 14.9677 36.1088 15.4681 36.6559C16.4452 35.4784 18.745 32.3389 18.745 32.3389C18.745 32.3389 15.4919 32.8859 13.3828 33.1713Z" fill="#0086FF"/>
<path d="M30.0057 28.7954L29.4457 26.3812L27.7536 24.8232L24.8223 29.2115L30.0057 28.7954Z" fill="#0086FF"/>
<path d="M11.4634 43.7569C11.1536 44.5774 10.8199 45.3742 10.522 46.0402L8.54399 47.1224C8.00777 46.0284 7.5073 44.8867 7.06641 43.6856C7.82903 43.5309 8.52016 43.3526 9.10403 43.1504C9.53302 43.2812 10.3433 43.5072 11.4634 43.7569Z" fill="#0086FF"/>
<path d="M3.08561 39.1304C2.10849 40.3077 1.2148 41.5325 0.428344 42.7575L0.273438 42.9953H0.392597C0.809656 42.9835 2.90686 42.8883 5.15898 42.5553C4.83725 41.5802 4.6466 40.8666 4.56319 40.5336C4.08654 40.153 3.58607 39.6773 3.08561 39.1304Z" fill="#0086FF"/>
<path d="M7.24564 47.7167C4.3858 48.6562 1.27574 47.1696 0.310547 44.5534C1.23999 44.4939 3.76618 44.2441 5.63699 43.9468C6.11362 45.2431 6.64984 46.5156 7.24564 47.7167Z" fill="#003399"/>
<path d="M13.8578 44.2084L12.5352 44.934C12.6543 44.6485 12.7616 44.3392 12.8807 44.042C13.2024 44.1014 13.536 44.1609 13.8578 44.2084Z" fill="#0086FF"/>
<path d="M23.7718 38.8094L19.1484 41.3306C18.6122 40.5457 17.5994 39.1306 16.4316 37.7392C17.3849 36.5975 18.2666 35.4202 19.0412 34.231L23.3547 35.3964L23.7122 35.5985L23.6884 35.7413L23.7718 38.8094Z" fill="#003399"/>
<path d="M17.8858 42.0204L15.9673 43.0671C15.0975 42.9719 14.2275 42.8411 13.3457 42.6864C13.596 41.8896 13.7866 41.1523 13.9177 40.4863C14.1799 40.2366 14.7519 39.6658 15.4787 38.8452C16.4916 40.0463 17.3733 41.2713 17.8858 42.0204Z" fill="#0086FF"/>
<path d="M3.02587 24.0988L0.046875 22.4458V25.8946L3.02587 24.0988Z" fill="#0086FF"/>
<path d="M2.12104 38.0605C1.37033 38.9643 0.655378 39.9038 0 40.8552V35.3252C0.571967 36.1101 1.29884 37.0852 2.12104 38.0605Z" fill="#003399"/>
<path d="M5.18344 33.1846C4.93321 33.9576 4.75447 34.6711 4.63531 35.3132C4.37316 35.563 3.8012 36.1338 3.07432 36.9545C1.68015 35.2895 0.154908 32.923 0 32.6731V32.5542L0.500468 32.59C2.03763 32.6851 3.61053 32.8872 5.18344 33.1846Z" fill="#0086FF"/>
<path d="M5.64758 31.8288L7.45879 27.6307L4.28915 24.9907L0.0709027 27.4524L0.0351562 31.0558L5.64758 31.8288Z" fill="#003399"/>
<path d="M26.2146 10.5175L24.868 11.338L24.8203 9.75635L26.2146 10.5175Z" fill="#0086FF"/>
<path d="M31.8752 13.6094C31.3628 14.7273 30.1235 17.7123 30.1235 17.7123L25.8696 17.0105L24.9043 12.991V12.9671L27.6569 11.3022L31.8752 13.6094Z" fill="#003399"/>
<path d="M36.0449 17.9624C35.3181 18.1408 34.6508 18.3311 34.0788 18.5332C33.6141 18.4024 32.7324 18.1883 31.5527 17.9624C32.1008 16.4997 32.7205 15.1202 33.1256 14.2876L34.8891 15.251C35.3062 16.1309 35.6994 17.0348 36.0449 17.9624Z" fill="#0086FF"/>
<path d="M42.826 28.4276C42.8022 28.4395 42.7664 28.4633 42.7426 28.4752L41.5272 29.1412C40.3593 29.0579 39.1797 28.9271 38 28.7369C38.2383 27.9995 38.429 27.3097 38.5482 26.7032C38.8818 26.3821 39.4895 25.7756 40.2522 24.9551C41.4199 26.394 42.4208 27.833 42.826 28.4276Z" fill="#0086FF"/>
<path d="M39.2861 30.3539L36.8672 31.674C37.0817 31.1744 37.2962 30.6394 37.5107 30.0923C38.0946 30.1993 38.6904 30.2826 39.2861 30.3539Z" fill="#0086FF"/>
<path d="M26.6679 37.2276L25.1784 38.0482L25.1426 36.3833L26.6679 37.2276Z" fill="#0086FF"/>
<path d="M32.0653 34.2905L28.1449 36.431L25.2852 34.8494L25.9405 30.8179C26.8699 30.7465 30.266 30.2827 30.266 30.2827L32.0653 34.2905Z" fill="#003399"/>
<path d="M36.0687 29.8307C35.6278 30.9605 35.1511 32.0189 34.7699 32.8157L33.3281 33.6006C32.7322 32.4708 32.1841 31.2578 31.6836 30.0091C32.5654 29.8188 33.34 29.5928 34.0072 29.355C34.4005 29.4501 35.1035 29.6405 36.0687 29.8307Z" fill="#0086FF"/>
<path d="M38.8935 17.4271C38.4288 17.4985 37.9522 17.5699 37.4636 17.6649C37.2967 17.225 37.13 16.7968 36.9512 16.3687L38.8935 17.4271Z" fill="#0086FF"/>
<path d="M44.1726 27.3452L43.8865 27.4523C43.4099 26.7625 42.397 25.3117 41.1816 23.8608C42.0992 22.7786 42.9571 21.6488 43.7317 20.519L44.1726 20.638C45.9004 22.5527 45.9004 25.4425 44.1726 27.3452Z" fill="#003399"/>
<path d="M42.694 19.5082C41.9552 20.6261 41.1211 21.7322 40.2273 22.7906C39.6554 22.1722 39.1073 21.637 38.5949 21.2089C38.5114 20.8996 38.297 20.1148 37.9395 19.0325C39.0715 18.8305 40.1678 18.6995 41.0376 18.6045L42.694 19.5082Z" fill="#0086FF"/>
<path d="M30.3017 25.7041C30.3017 25.7041 30.6473 27.0361 31.243 28.6535C32.2321 28.4275 33.09 28.1778 33.7811 27.9042L34.0075 27.8091L34.2459 27.8805C34.2816 27.8923 35.1634 28.1421 36.6171 28.4038C36.8912 27.5475 37.0818 26.7864 37.189 26.1323L37.2249 25.8945L37.4036 25.7279C37.4155 25.716 38.1662 25.0144 39.2743 23.7657C38.6428 23.0878 38.0352 22.5171 37.4751 22.077L37.2844 21.9223L37.2249 21.6845C37.1652 21.4348 36.915 20.5309 36.4622 19.2466C35.6281 19.4488 34.9013 19.6747 34.3054 19.9126L34.079 19.9959L33.8407 19.9245C33.6382 19.8651 32.5896 19.5915 31.0166 19.318C30.7664 20.1385 30.5995 20.8758 30.4923 21.5062L30.4566 21.744L30.2898 21.9105C30.0872 22.1008 29.3961 22.7905 28.4785 23.8608C29.0386 24.4435 30.0396 25.3236 30.0396 25.3236L30.2301 25.4782L30.3017 25.7041Z" fill="#00BC96"/>
<path d="M5.88624 12.0637C5.88624 12.0756 6.10072 12.9793 6.57737 14.3946C7.47106 14.2161 8.22177 14.0139 8.8533 13.8L9.09163 13.7167L9.31804 13.788C9.59209 13.8713 10.5573 14.1686 11.9515 14.4659C12.2494 13.574 12.4519 12.7772 12.571 12.0756L12.6069 11.8377L12.7855 11.6712C12.9762 11.4928 13.6436 10.8387 14.5492 9.81599C13.9653 9.18569 13.4171 8.66243 12.9286 8.25809L12.7379 8.10349L12.6783 7.84185C12.6069 7.53266 12.3805 6.6883 11.9991 5.53474C11.1173 5.71312 10.3547 5.90341 9.72317 6.12935L9.49677 6.21261L9.27036 6.14125C8.9963 6.058 8.0311 5.76069 6.63694 5.46338C6.33904 6.35531 6.13648 7.1521 6.01731 7.85375L5.96965 8.09159L5.80283 8.25809C5.61217 8.43647 4.93295 9.09056 4.02734 10.1133C4.61123 10.7436 5.15936 11.2669 5.65983 11.6831L5.85049 11.8377L5.88624 12.0637Z" fill="#00BC96"/>
<path d="M5.88604 39.9866C5.88604 39.9985 6.10052 40.8905 6.57716 42.3175C7.47086 42.1392 8.22156 41.937 8.85311 41.7229L9.09143 41.6396L9.31783 41.711C9.57998 41.7943 10.5452 42.0916 11.9513 42.3889C12.2491 41.497 12.4517 40.7002 12.5709 39.9985L12.6066 39.7607L12.7854 39.5942C12.976 39.4158 13.6433 38.7618 14.5489 37.739C13.9651 37.1087 13.4169 36.5855 12.9284 36.1811L12.7258 36.0384L12.6781 35.8006C12.6185 35.5508 12.3921 34.6589 11.9632 33.4102C10.9384 33.6005 10.0566 33.8264 9.32974 34.0762L9.10335 34.1594L8.87694 34.088C8.72204 34.0405 7.88792 33.7788 6.60099 33.4934C6.31501 34.3615 6.12435 35.1346 6.01711 35.8006L5.96945 36.0384L5.80262 36.2048C5.61197 36.3833 4.93276 37.0374 4.03906 38.06C4.62294 38.6904 5.17108 39.2136 5.65963 39.6299L5.85028 39.7844L5.88604 39.9866Z" fill="#00BC96"/>
</svg>
